<svg id="Layer_1" data-name="Layer 1" xmlns="http://www.w3.org/2000/svg" viewBox="0 0 668.95 976.3"><defs><style>.cls-1{fill:#afafaf;}.cls-2{fill:#2f5197;}.cls-3{fill:#ce1127;}.cls-4,.cls-6{fill:#fff;}.cls-5{fill:#fdd116;}.cls-5,.cls-6{stroke:#000;stroke-miterlimit:10;stroke-width:6px;}</style></defs><title>logoEcrida</title><path class="cls-1" d="M1010.17,1081.36c-11.17-1-13.82.45-17.58,9.72-1.66,4.1-3.8,8.09-5,12.28-1.88,6.7-8,10-14.45,12.72-7.87,3.28-15.21,0-17.64-7.14-2.3-6.8-2.89-7.12-12.48-6.91-5.16,3.38-6.55,7.94-6,13.12.53,4.88.89,9.77,1.68,14.62,1.89,11.61-8.64,22.42-22.07,22.47-8.58,0-15.14-5.12-15.3-12.3-.14-6.09.09-12.19.11-18.29,0-1.44-.15-2.87-.28-5.22-1.85.5-3.21,1-4.62,1.24-6,1.23-10.44-.67-11.78-5.32-.64-2.22-.32-4.61-.57-6.92-.45-4.18-4-8.42-7.12-8.6-4.06-.23-8.62,4.4-8.9,9.19a49.13,49.13,0,0,0,0,7c1.25,15.27,1.82,30.62,4.14,45.78,1.46,9.57,1.4,19,1.57,28.58a87,87,0,0,1-5.18,31.6c-1.86,5.14-2.38,10.31-6.53,15.08-9.4,10.82-21.7,12.64-33.1,3.59-6.63-5.26-10.63-11.43-12.36-19.4-2.94-13.56-2.38-26.65-.18-40.23,1.95-12,4.67-23.94,6.1-35.89,2-16.95,8-33.44,7.6-50.67-.23-8.91,1.65-17.85,1.86-26.79.11-4.78-1.3-9.59-2.11-14.93-9.34,2.94-9.47,10.44-14.37,15-9.95.32-11-.31-11.17-8.24-.19-7.22,0-14.44,0-21.66-4.32-3-8.61-3.59-13.59-1.39-2.7,1.19-4.27,2.55-4.85,5.14-3,13-5.07,25.91-2.77,39.44,3.65,21.53,3.48,43.32,2.75,65.07-.23,7-4.17,12.82-8.82,18.1-3.63,4.11-9.95,5.44-15.95,4.89-14.79-1.35-25.27-11.44-25.6-24-.18-7,1.25-13.62,3.42-20.46,4.21-13.29,8.24-26.65,11.77-40.12,5.05-19.27,3.32-38.63,3.9-58,.21-7-.17-13.94-.23-20.91-.09-9.26-.75-18.39-3.35-27.53-2.06-7.24-2-14.88-3.06-22.33-.43-3.14-1.23-6.23-1.72-9.36-.8-5.15-1.5-10.3-2.22-15.46-1.87-13.44-3.33-26.91-7.19-40.13-5.16-17.71-9-35.7-7.17-54,1-10,.83-20.14,4.59-29.94,2.09-5.44,1.83-11.49,3.78-17a238.64,238.64,0,0,1,21.22-44.59c11.86-19.49,27.18-36.59,45.17-52.13a243.19,243.19,0,0,1,46.36-31.5c23.18-12.12,48.32-20.79,74.7-26.83,8-1.83,16.22-2.75,24.37-4,21.8-3.26,43.85-2.45,65.71-1.4a127.52,127.52,0,0,1,27.52,3.87c8.39,2.28,17.33,3.67,26,5.68,17.85,4.14,34,11.07,50.1,18.4a232.87,232.87,0,0,1,33.28,18.84,252.08,252.08,0,0,1,28.93,22.73,249.51,249.51,0,0,1,35.13,40.13c3.86,5.4,6.64,11.35,9.76,17.1,3.2,5.91,7,11.7,9.12,17.89,3.7,11,9.41,21.67,9.76,33.43a100.51,100.51,0,0,0,2.09,16.33c2.52,13,1.8,25.82.18,38.84-1.71,13.79-1.66,27.73-2.56,41.6-3.27,50.44-2.32,100.91-2,151.38a94.26,94.26,0,0,0,1.61,13.74c.9,5.75-2.57,10.11-6.55,14.16-4.15,4.23-9.25,7.14-16.73,4.9-9.84-7.86-8.49-18.17-6.88-28.16,1.89-11.68,5-23.22,7.43-34.84,1-4.7,0-9.25-3.16-16-2.63-1.31-4.67-.57-6,1.48a15.15,15.15,0,0,0-1.14,3.28c-2.74,7.36-5.91,8.65-16,6.17-.76-3.43-1.57-7.07-2.37-10.71-.19-.85-.23-1.73-.47-2.57-2.25-8.2-6-9.59-16-5.25a65.53,65.53,0,0,0-.74,7.23c0,16.26.14,32.52.25,48.78,0,1.74-.24,3.59.35,5.2,3.83,10.44,3,21.16,3.41,31.85.31,8.85-3.24,17.06-5.51,25.41-2.15,7.92-8.74,14.18-16.59,19.11-4.62,2.9-9.64,2.35-14.77.51-8.49-3-12.79-9.2-14.9-15.82a60.53,60.53,0,0,1-1.66-30.1c.93-4.82.8-9.79.8-14.7,0-1.19-1.41-2.38-2.37-3.88-2,4.9-3.23,9.35-5.53,13.39-2.54,4.45-8.12,4.88-12.91,1.78-4.16-2.69-6.21-6-6-10.42a85.51,85.51,0,0,0,0-12.19,11,11,0,0,0-2.64-6.24c-2-2.18-4.7-5.16-8.61-3.58-3.64,1.47-7.54,3.63-7.5,7.67.1,11,.18,22.05.82,33.06.62,10.64,2.78,21.26,2.69,31.88a86.86,86.86,0,0,1-4.14,25.64c-3,9.34-9.4,17.17-20.2,22.23-9.94,4.66-19.32,3.47-27.28-1.9-9.21-6.21-16.44-13.86-15.45-25,1.15-13,2.52-26,1.95-39C1019.7,1100,1020.74,1089.26,1010.17,1081.36Z" transform="translate(-664.61 -445.31)"/><path class="cls-1" d="M1222.08,966.69c-.71.93-1.4,1.89-2.06,2.85a4,4,0,0,1,4.29-.15l.18-.18A5.71,5.71,0,0,1,1222.08,966.69Z" transform="translate(-664.61 -445.31)"/><path class="cls-1" d="M1284.11,797.29l37-17a5.25,5.25,0,0,0,.8-.56l-20.44-80.9c-5.51.29-11,.54-16.57.9q-20,1.25-40,2.55a3.58,3.58,0,0,1-.79-.09c-6.16-11.07-12.27-22-18.61-33.42l33-46.74-58.49-60.12-47.74,31.78-24-14.27-9-5.34c1.46-16,3-32.35,4.5-48.87.24-2.71.5-5.45.75-8.19-2.09-.59-4.16-1.18-6.23-1.75l-27.53-7.79-11.48-3.23-35.54-10c-1.4,2.84-2.81,5.66-4.2,8.47q-2.42,4.91-4.82,9.74l-5,10.09q-1.61,3.19-3.18,6.41l-3,6.13c.36.79.7,1.6,1.05,2.4,1.12,2.67,2.2,5.34,3.25,8,.18.47.37.94.55,1.42l.55,1.41c.87,2.27,1.7,4.54,2.52,6.81l.51,1.42c.16.47.33.93.5,1.41a.94.94,0,0,1,.06.15c0,.09,0,.18.08.26s.07.19.1.29.14.38.2.58l.24.68a2.83,2.83,0,0,0,.11.31c.07.21.13.42.2.63,0,0,0,.08.05.13A270.48,270.48,0,0,1,1045,608.43l1.93.47c1.61.4,3.23.83,4.84,1.25l1.91.53q3.38,1,6.73,2c1,.31,2,.62,2.91.95,1.81.59,3.59,1.21,5.36,1.85a213.71,213.71,0,0,1,28.16,12.55c1.64.87,3.29,1.77,4.9,2.71,2,1.15,4,2.33,6,3.54s3.94,2.45,5.9,3.73l0,0a214.7,214.7,0,0,1,78.08,267l-.45,1a215.11,215.11,0,0,1-378.73,24.76c-.82-1.35-1.64-2.7-2.45-4.08h0a213.68,213.68,0,0,1-21.12-49.08q-1.78-6.2-3.23-12.56c-25.31-112,42-223.49,151.48-254.25,1.2-.34,2.42-.67,3.64-1l3.12-.8c1.37-.35,2.74-.67,4.14-1l.64-.15c.27-.07.53-.11.79-.18,0,0,0-.07,0-.1.07-.76.14-1.52.22-2.27.14-1.52.31-3,.48-4.53l.22-1.77c.08-.6.15-1.19.23-1.8s.17-1.34.26-2c0-.18.06-.4.08-.58.08-.52.15-1,.22-1.55q.27-1.82.54-3.6c3.47-21.79,9.69-42.74,20.25-62.21-.78-1.67-1.55-3.36-2.32-5-.13-.29-.28-.58-.41-.86q-4-8.83-8.13-17.65c-1.44-3.12-2.87-6.25-4.32-9.36a13.86,13.86,0,0,0-.84-1.39l-81,20.48c.28,5.52.54,11,.87,16.56l.54,8.69q1,15.79,2,31.59a1.39,1.39,0,0,1-.11.47c-11.07,6.18-22.06,12.29-33.42,18.62-15.3-10.8-31-21.87-46.74-33q-20.53,20-41,39.83-9.62,9.33-19.24,18.7l30.5,45.79c.42.63.83,1.26,1.26,1.89-1.25,2.12-2.52,4.24-3.78,6.35l-15.88,26.57-57.09-5.2c-7.63,26.95-15.2,53.67-22.87,80.74,17.2,8.5,34.39,17,51.71,25.58a294.16,294.16,0,0,0-.53,37.78l-14.66,6.79c-1.75.81-3.49,1.6-5.22,2.41l-31.77,14.65a7.26,7.26,0,0,0-.81.55l20.45,80.9c5.53-.29,11.05-.54,16.57-.89q20-1.26,40-2.56a3.58,3.58,0,0,1,.79.09c5.46,9.79,10.87,19.53,16.44,29.52a5.08,5.08,0,0,1,1.75,2.34c1.82,5,4.7,9.51,7.29,14.17a3.83,3.83,0,0,1,3.14.09,4.6,4.6,0,0,1,5.13,3.52c.27,1.11.56,2.2.87,3.29,3.82,4.94,7.43,10,10.95,15.16q3.65,3,7.4,5.87c1.11-3.06,5.54-4.89,8.38-2.09A92.51,92.51,0,0,0,828,1023.65a4.58,4.58,0,0,1,5.77-.65,85.44,85.44,0,0,1,24.75,23c12.22,6,24.68,11.61,37.16,16.93,9.4-2.5,19.12-2.78,28.9-2.79,3.94,0,5.55,3.73,4.55,6.66h4.34a4.54,4.54,0,0,1,4.06,2.17c8.46-6.48,22.93-6,32.83-2a6.15,6.15,0,0,1,3.39,3.77,331.34,331.34,0,0,0,40.62-3.77,5.3,5.3,0,0,1,2.3.11q21.48-4.32,42.67-9.93,5.91-2.41,11.61-5.23a5.1,5.1,0,0,1,3.47-.45c9.29-6.4,18.27-13.25,27.64-19.55a4.36,4.36,0,0,1,4.53-.22c1-.73,2-1.47,3-2.22,2.89-2.73,5.94-5.32,9.14-7.81l.09-.08h0c.34-.26.66-.53,1-.79a4.13,4.13,0,0,1,5.79.64l4.31-4.3a4.53,4.53,0,0,1,4.48-1.33,115.11,115.11,0,0,1,10.17-6.32l.12-.22a4.45,4.45,0,0,1,4.86-2.35c1.19-.57,2.38-1.13,3.6-1.67a5.42,5.42,0,0,1,5.52.58q1.66-1.51,3.28-3,2.05-2.07,4.15-4.1c1.08-1.11,2.13-2.23,3.16-3.38a64.91,64.91,0,0,1,7.33-9.27,4.62,4.62,0,0,1,5.17-1c.83-.65,1.66-1.31,2.51-2a4.3,4.3,0,0,1,1.22-.63c2.92-2.54,5.87-5,8.88-7.47,3.74-3,8.87-.23,8.49,4a3.7,3.7,0,0,1,.42.37,89.15,89.15,0,0,1,17.76-26.54c2.48-2.53,6-1.47,7.85,1a7.2,7.2,0,0,1,1.16,2.25,5.17,5.17,0,0,1,2.82.15l7.84-13.14,57.08,5.2c7.64-26.91,15.21-53.64,22.88-80.73-17.18-8.51-34.38-17-51.31-25.37.17-12.82.34-25.38.51-38.18C1274.47,801.74,1279.29,799.51,1284.11,797.29Z" transform="translate(-664.61 -445.31)"/><path class="cls-2" d="M949.84,595.71c-.1,1-.19,1.94-.29,2.92s-.19,2-.27,3c-.07.81-.14,1.61-.2,2.43-.11,1.22-.2,2.44-.27,3.65,0,.06,0,.09,0,.14-.06.74-.09,1.47-.14,2.21q-.21,3.55-.35,7.11c0,.9-.07,1.8-.1,2.7s-.05,1.87-.07,2.8c0,.28,0,.57,0,.85,0,.78,0,1.58,0,2.38l0,2.94c0,1.1,0,2.17,0,3.26s0,1.91,0,2.85,0,1.65,0,2.47c0,.41,0,.81,0,1.21,0,.56,0,1.12,0,1.69,0,1.29.07,2.59.11,3.88,0,.94.06,1.89.12,2.82,0,.6,0,1.19.07,1.79s.07,1.42.11,2.11c0,.93.09,1.85.15,2.78s.1,2,.17,3q.27,4.23.62,8.47c.08,1,.17,2,.26,3,1.75,19.88,5.15,39.4,11.47,58.39,1.21,3.61,2.49,7.18,4,10.65a77.64,77.64,0,0,0,3.85,7.82c.69,1.24,1.43,2.44,2.21,3.64l.45.66c.08.14.17.26.25.39l.36.51c.12.15.24.32.36.49a5.92,5.92,0,0,1,.35.48l.41.52.43.56.6.72.35.42a31.88,31.88,0,0,0,2.88,3l.36.33.38.32a2.69,2.69,0,0,0,.37.3c.28.24.57.47.85.68a4.48,4.48,0,0,0,.44.32l.43.3.46.31,0,0,.42.27.46.27.45.27.93.48c.3.16.61.29.94.43.14.06.29.13.44.18l.06,0h0q.42.18.87.33l-.19.13-.3.21-.66.48-.38.31c-.25.2-.5.42-.75.64l-.37.34-.35.35c-.12.12-.23.24-.36.35l-.41.45a3.47,3.47,0,0,0-.25.29,15.54,15.54,0,0,0-1.24,1.57c-.1.13-.2.27-.29.41s-.19.28-.28.42-.37.56-.54.85c-.09.14-.17.29-.25.43a1.83,1.83,0,0,0-.13.24,4.36,4.36,0,0,0-.23.42c-.15.27-.27.53-.4.81l-.17.33c-.11.23-.21.47-.31.71-.32-.24-.66-.51-1-.78a5.12,5.12,0,0,1-.43-.36c-.14-.12-.29-.24-.43-.38l-.42-.38a39.42,39.42,0,0,1-3.38-3.52c-.15-.16-.27-.32-.42-.49s-.46-.56-.69-.86l-.51-.66-.47-.61-.41-.56-.42-.57-.41-.6c-.1-.14-.21-.3-.31-.46s-.35-.5-.51-.76a85.06,85.06,0,0,1-7.1-13.44c-1.75-4.06-3.23-8.24-4.65-12.48-7.42-22.26-11.4-45.12-13.46-68.43-.1-1.2-.21-2.36-.3-3.55-.26-3.3-.5-6.62-.71-9.92-.09-1.16-.15-2.32-.21-3.48s-.13-2.17-.18-3.26c0-.82-.07-1.65-.11-2.48,0-.68-.06-1.39-.09-2.09-.06-1.09-.08-2.21-.13-3.31,0-1.53-.09-3.05-.13-4.57,0-.64,0-1.31,0-2,0-.48,0-1,0-1.43,0-1,0-1.93-.05-2.88,0-1.11,0-2.22,0-3.33,0-1.27,0-2.55,0-3.82s0-2.3,0-3.44l.06-2.81c0-.33,0-.66,0-1,0-.86,0-1.7.06-2.56-1.22.32-2.44.64-3.64,1C827.87,641.55,760.53,753,785.84,865.05q1.44,6.36,3.23,12.56a214.3,214.3,0,0,0,21.12,49.08l-.27.16c-.25.13-.49.27-.73.42l-.38.24c-.37.22-.73.46-1.09.71l-.69.5-.67.52-.68.56-.48.42-.34.33c-.27.25-.53.5-.78.76s-.52.53-.77.8-.54.6-.8.91l-.44.55c-.23.28-.46.56-.69.86a225.53,225.53,0,0,1-24.18-56.34c-1.21-4.36-2.28-8.78-3.24-13.27-25.3-118.42,47.12-235,162.84-266,1.54-.41,3.08-.81,4.63-1.18l2.51-.61q2.17-.51,4.38-1Z" transform="translate(-664.61 -445.31)"/><path class="cls-3" d="M1113.71,638l0,0c-2-1.27-3.92-2.52-5.9-3.73s-4-2.39-6-3.54c-1.62-.93-3.27-1.84-4.9-2.71a213.71,213.71,0,0,0-28.16-12.55c-1.78-.64-3.56-1.26-5.36-1.85-1-.33-1.94-.65-2.91-1-2.23-.7-4.47-1.38-6.73-2l-1.91-.53a275.4,275.4,0,0,1-5.8,86c-1.15,4.93-2.37,9.48-3.6,13.63-.13.45-.26.88-.4,1.32a164.55,164.55,0,0,1-5.77,16.19c-6.21,18.08-14.27,27-21.57,31.28l-13.17-4.7-1.23-.44L970,742.67l-1,2.37c.69,1.24,1.43,2.44,2.21,3.64l.45.66c.08.14.17.26.25.39l.36.51c.12.15.24.32.36.49a5.92,5.92,0,0,1,.35.48l.41.52.43.56.6.72.35.42a31.88,31.88,0,0,0,2.88,3l.36.33.38.32a2.69,2.69,0,0,0,.37.3c.28.24.57.47.85.68a4.48,4.48,0,0,0,.44.32l.43.3.46.31,0,0,.42.27.46.27.45.27.93.48c.3.16.61.29.94.43.14.06.29.13.44.18l.06,0h0q.42.18.87.33l-.19.13-.3.21-.66.48-.38.31c-.25.2-.5.42-.75.64l-.37.34-.35.35c-.12.12-.23.24-.36.35l-.41.45a3.47,3.47,0,0,0-.25.29,15.54,15.54,0,0,0-1.24,1.57c-.1.13-.2.27-.29.41s-.19.28-.28.42-.37.56-.54.85c-.09.14-.17.29-.25.43a1.83,1.83,0,0,0-.13.24,4.36,4.36,0,0,0-.23.42c-.15.27-.27.53-.4.81l-.17.33c-.11.23-.21.47-.31.71h0c.17.14.34.26.51.38l.5.36.54.35,0,0c.16.11.33.21.5.31s.35.22.54.32.36.2.53.31c.36.19.72.38,1.09.56l1.09.5.52.21.07,0h0c.34.15.69.27,1,.38a36.94,36.94,0,0,0,12.9,2.29c-1.26,11.61-2.74,25.5-4.17,39,.66-.5,1.31-1,1.93-1.53l-7.76,56.37c0,.12,0,.19,0,.19-.56,3.41-1.11,6.83-1.65,10.24L1005,843.85l7.45,41v0a74.27,74.27,0,0,0,3.06-13.26c.74-4.39,1.38-8.84,2.4-13.18,1-4.16.71-8.63,3.28-12.62,3.8,11.36,6.43,22.94,9.35,34.44,3,11.67,5.93,23.34,9,35.53a79.92,79.92,0,0,1,6.85-7.92,57.43,57.43,0,0,1,41-17.06c2.63,0,4-.77,5.6-3.26,9.91-15,27.5-23.37,45.9-19.16,16,3.64,26.6,13.55,31.83,28.87,1.26,3.7,3,4.58,6.38,4.87a41,41,0,0,1,14.34,3.85l.45-1A214.61,214.61,0,0,0,1113.71,638ZM1002.32,821.22c.09.26.21.51.29.77l-.08.08C1002.46,821.77,1002.38,821.49,1002.32,821.22Zm129.92-3.9-9.8-6.21c.17-3.37.37-7.44.59-11.88l9.86,6.37C1132.7,809.23,1132.48,813.08,1132.24,817.32Zm27.42,20.84-9.8-6.21c.17-3.37.37-7.44.59-11.88l9.86,6.37C1160.11,830.08,1159.9,833.93,1159.66,838.16Zm12.88-30.94-9.79-6.2c.17-3.37.37-7.45.59-11.89,3.38,2.18,6.64,4.29,9.85,6.38C1173,799.14,1172.78,803,1172.54,807.22Z" transform="translate(-664.61 -445.31)"/><path class="cls-2" d="M937.27,610.8C827.82,641.55,760.48,753,785.79,865.05q1.44,6.36,3.23,12.56a214.3,214.3,0,0,0,21.12,49.08c.26-.14.53-.28.81-.4.51-.25,1-.47,1.54-.68l.08,0,.08,0c.26-.11.52-.2.77-.29s.57-.19.85-.28l.4-.12.47-.13.88-.22,1.15-.25c.21,0,.43-.09.64-.12l.86-.13c.51-.06,1.05-.12,1.57-.16l.63,0a31.23,31.23,0,0,1,3.62,0c5.34.28,5.88.68,6.47,5.86a41.56,41.56,0,0,0,4.47,15.5c-.52-2.79-.9-4.49-1.13-6.23-1.25-9-1-17.76,2.2-26.41A45.8,45.8,0,0,1,906.36,891c11.82,8.49,17.56,20.36,19.45,34.45.26,1.92.46,3.84.86,7.19a34.43,34.43,0,0,0,.23-16.49c-1-5.36-.59-6.46,4-9.55,12.79-8.57,28.52-6.49,38.78,5l.62.72,3.56,4.23c5.4-2.54,9.81-5.06,14.53-6.71,5.16-1.79,10.13.61,16,2.83a14,14,0,0,0-8.11-5.87c-3-.87-6.18-1-9.59-1.49,1.82-11.38,4.31-22.2,5.64-33.19-2.73,3.81-2.85,8.7-6.45,13.38,0-2.23,0-3.22.1-4.17.54-3.42,1.1-6.83,1.65-10.24,0,0,0-.07,0-.19.26-2.48,3-27.87,5.83-54.84,1.43-13.49,2.92-27.38,4.17-39a36.9,36.9,0,0,1-12.9-2.29c-.33-.11-.68-.23-1-.38,0,0,0,0,0,0l-.07,0-.52-.21-1.09-.5c-.37-.18-.72-.37-1.09-.56-.17-.11-.36-.2-.53-.31s-.36-.21-.54-.32-.34-.2-.5-.31l0,0c-.19-.11-.35-.23-.54-.35l-.5-.36a6.13,6.13,0,0,1-.51-.38h0c-.32-.24-.66-.51-1-.78a5.12,5.12,0,0,1-.43-.36c-.14-.12-.29-.24-.43-.38l-.42-.38a39.42,39.42,0,0,1-3.38-3.52c-.15-.16-.27-.32-.42-.49s-.46-.56-.69-.86l-.51-.66L970,763l-.41-.56-.42-.57-.41-.6c-.1-.14-.21-.3-.31-.46s-.35-.5-.51-.76a85.06,85.06,0,0,1-7.1-13.44c-1.75-4.06-3.23-8.24-4.65-12.48-7.42-22.26-11.4-45.12-13.46-68.43-.1-1.2-.21-2.36-.3-3.55-.26-3.3-.5-6.62-.71-9.92-.09-1.16-.15-2.32-.21-3.48s-.13-2.17-.18-3.26c0-.82-.07-1.65-.11-2.48,0-.68-.06-1.39-.09-2.09-.06-1.09-.08-2.21-.13-3.31,0-1.53-.09-3-.13-4.57,0-.64,0-1.31,0-2,0-.48,0-1,0-1.43,0-1,0-1.93,0-2.88,0-1.11,0-2.22,0-3.33,0-1.27,0-2.55,0-3.82s0-2.3,0-3.44l.06-2.81c0-.33,0-.66,0-1,0-.86,0-1.7.06-2.56C939.69,610.13,938.47,610.46,937.27,610.8ZM840.82,791.42,831,785.25c.16-3.49.35-7.58.55-11.9l9.93,6.32C841.28,783.32,841.07,787.16,840.82,791.42ZM884.33,812l-9.82-6.17c.16-3.49.35-7.59.55-11.9l9.93,6.32C884.79,803.89,884.57,807.72,884.33,812Zm-18-63.46-9.82-6.17c.17-3.5.35-7.58.56-11.91l9.93,6.32C866.79,740.42,866.56,744.26,866.32,748.53ZM941,688.83c1.18,18.29,3.68,36.33,9.16,53.88,1,3.39,2.35,6.71,3.33,10.11.7,2.41,0,4.34-2.86,4.59-13.46,1.16-22.92,8.17-29.29,19.82-.18.32-.77.44-1.86,1a17.34,17.34,0,0,1-1.13-3.13c-2.37-20.53-3.62-41-1.51-61.74,1.44-14,9.46-23.38,20-31.38.69-.52,1.7-.59,3.35-1.12C940.5,683.83,940.86,686.33,941,688.83Z" transform="translate(-664.61 -445.31)"/><path class="cls-3" d="M1217.11,770.17a225.42,225.42,0,0,1-15.84,142l-.35-.24c-1-.71-2-1.38-3-2.08a42.7,42.7,0,0,0-6.56-3.84l.45-1a214.7,214.7,0,0,0-78.08-267l0,0c-2-1.27-3.92-2.52-5.9-3.73s-4-2.39-6-3.54c-1.62-.93-3.27-1.84-4.9-2.71a213.71,213.71,0,0,0-28.16-12.55q-4.11-1.49-8.28-2.81c-2.23-.7-4.47-1.38-6.73-2l-1.91-.53c0-.59-.1-1.19-.15-1.79v0c-.33-3.5-.74-7.06-1.21-10.65l2,.51c2.38.61,4.74,1.27,7.1,2s4.72,1.43,7.06,2.21c2.91,1,5.82,2,8.69,3.06A227,227,0,0,1,1104.77,619q2.6,1.41,5.14,2.91c2.13,1.25,4.22,2.52,6.3,3.83s4.13,2.64,6.15,4l.05,0A225.44,225.44,0,0,1,1217.11,770.17Z" transform="translate(-664.61 -445.31)"/><path class="cls-1" d="M1200.92,911.93c-1-.71-2-1.38-3-2.08a42.7,42.7,0,0,0-6.56-3.84,41,41,0,0,0-14.34-3.85c-3.33-.29-5.12-1.18-6.38-4.87-5.24-15.32-15.88-25.23-31.83-28.87-18.4-4.21-36,4.12-45.9,19.16-1.64,2.49-3,3.29-5.6,3.26a56.45,56.45,0,0,0-30.61,8.76,55.76,55.76,0,0,0-10.36,8.3,79.92,79.92,0,0,0-6.85,7.92c-3.09-12.19-6-23.86-9-35.53-2.92-11.5-5.55-23.08-9.35-34.44-2.57,4-2.32,8.47-3.28,12.62-1,4.35-1.65,8.79-2.4,13.18a74.27,74.27,0,0,1-3.06,13.26v0c-.11-1.47-5.34-69-8.78-108.26-.85-9.86-1.61-17.93-2.13-22.71-.34-3.13-.58-4.86-.7-4.76s-.21,1.58-.52,4.32c-.54,4.81-1.46,13.31-2.57,23.62-1.26,11.61-2.74,25.5-4.17,39-2.87,27-5.57,52.36-5.83,54.84,0,.12,0,.19,0,.19-.56,3.41-1.11,6.83-1.65,10.24a39,39,0,0,0-.1,4.17c3.6-4.68,3.72-9.57,6.45-13.38-1.33,11-3.82,21.81-5.64,33.19,3.41.5,6.61.62,9.59,1.49a14,14,0,0,1,8.11,5.87c-5.87-2.22-10.83-4.62-16-2.83-4.71,1.65-9.13,4.16-14.53,6.71l-3.56-4.23c-.2-.24-.41-.49-.62-.72-10.26-11.52-26-13.6-38.78-5-4.59,3.09-5,4.19-4,9.55a34.31,34.31,0,0,1-.23,16.49c-.4-3.34-.59-5.27-.86-7.19-1.89-14.08-7.62-26-19.45-34.45a45.8,45.8,0,0,0-69.86,21.52c-3.16,8.65-3.44,17.45-2.2,26.41.23,1.74.62,3.44,1.13,6.23a41.7,41.7,0,0,1-4.47-15.5c-.59-5.18-1.13-5.58-6.47-5.86a33.62,33.62,0,0,0-3.62,0l-.63,0c-.53,0-1.06.1-1.57.16l-.86.13c-.21,0-.43.07-.64.12-.39.07-.78.16-1.15.25l-.88.22-.47.13-.4.12c-.28.08-.57.19-.85.28l-.77.29-.08,0-.08,0c-.52.21-1,.43-1.54.68l-.8.41-.27.15c-.25.13-.49.27-.73.42l-.38.24c-.13.08-.26.15-.38.24l-.71.47-.69.5-.67.52-.68.56-.48.42-.34.33c-.27.25-.53.5-.78.76s-.52.53-.77.8-.54.6-.8.91l-.44.55c-.23.28-.46.56-.69.86a226.73,226.73,0,0,0,400-22.26A3.33,3.33,0,0,1,1200.92,911.93Zm-66.39,26.55c-21.78-1.6-38.59,5.51-51.81,21.13A44,44,0,0,1,1134.53,938.48Zm-54.69,48.88a58,58,0,0,0-27-2.3c-.91.15-1.81.33-2.71.52q-13.44,2.94-25.83,13.12l-.25.2h0c.22-.28.43-.55.66-.82C1036.05,984.28,1060,975.6,1079.84,987.36Zm-65.09-41.8c-1.16-.5-2.3-1-3.46-1.4s-2.29-.82-3.42-1.19c-.57-.18-1.13-.35-1.71-.51s-1.13-.33-1.7-.47a63.11,63.11,0,0,0-6.73-1.35c-1.45-.21-2.9-.36-4.34-.44-.41,0-.83-.05-1.25-.06-.9,0-1.79-.06-2.68,0a50.59,50.59,0,0,0-5.37.33q-1.05.11-2.1.27l-.69.11a62.89,62.89,0,0,0-22.51,8.64C974.56,935.15,1000.75,933.08,1014.75,945.56Zm-78.51,22.16a59.89,59.89,0,0,0-8.6-3.82l-1.72-.56c-.57-.18-1.14-.35-1.72-.51-14.32-4-28.6-1.49-42.94,5C899.16,955,921.2,955,936.24,967.72Z" transform="translate(-664.61 -445.31)"/><path class="cls-4" d="M867,736.77c-.21,3.65-.44,7.49-.68,11.75l-9.82-6.17c.17-3.5.35-7.58.56-11.91Z" transform="translate(-664.61 -445.31)"/><path class="cls-4" d="M841.49,779.67c-.21,3.65-.42,7.49-.67,11.75L831,785.25c.16-3.49.35-7.58.55-11.9Z" transform="translate(-664.61 -445.31)"/><path class="cls-4" d="M885,800.24c-.21,3.65-.43,7.48-.67,11.75l-9.82-6.17c.16-3.49.35-7.59.55-11.9Z" transform="translate(-664.61 -445.31)"/><path class="cls-4" d="M1160.32,826.45c-.21,3.64-.41,7.49-.65,11.72l-9.8-6.21c.17-3.37.37-7.44.59-11.88Z" transform="translate(-664.61 -445.31)"/><path class="cls-4" d="M1173.2,795.51c-.2,3.63-.41,7.49-.65,11.72l-9.79-6.2c.17-3.37.37-7.45.59-11.89C1166.73,791.31,1170,793.42,1173.2,795.51Z" transform="translate(-664.61 -445.31)"/><path class="cls-4" d="M1132.9,805.6c-.2,3.63-.41,7.49-.65,11.72l-9.8-6.21c.17-3.37.37-7.44.59-11.88Z" transform="translate(-664.61 -445.31)"/><path class="cls-5" d="M1081.67,703.2c4.12,9.29,3.92,19,4.1,28.69,0,.83,0,1.66,0,2.5a234.94,234.94,0,0,1-2,32.15c-.64,5-1.45,10-2.38,15-.17.91-.51,1.78-1.06,3.66a49.75,49.75,0,0,1-2.95-4.37c-1.93-3.72-3.76-7.5-5.59-11.27l-.11-.22c-4.2-8.68-11.67-14.23-19-19.92-5.3-4.13-4.86-3.86-2.09-9.55a106.17,106.17,0,0,0,7.62-19.85c3-11.79,3.56-24,3.56-36.12,0-2.3.21-4.6.39-8.24a98,98,0,0,1,15.3,19.38A78.36,78.36,0,0,1,1081.67,703.2Z" transform="translate(-664.61 -445.31)"/><path class="cls-5" d="M1009.69,452.64c-5.42-5.52-8.79-5.71-14.79-.88-9,7.33-15.42,16.81-21.17,26.71-.65,1.08-1.25,2.16-1.87,3.26q-3.25,5.86-6.12,11.9c-1.59,3.33-3.07,6.7-4.48,10.11a255.47,255.47,0,0,0-15.33,54.55c-.25,1.47-.5,3-.73,4.43-.11.63-.2,1.27-.31,1.92,0,.22-.07.47-.09.71-.13.83-.25,1.66-.38,2.49s-.2,1.47-.29,2.22-.2,1.46-.3,2.18c-.23,1.86-.47,3.72-.68,5.59-.1.92-.21,1.85-.3,2.79a.69.69,0,0,0,0,.13c-.12,1.14-.22,2.28-.34,3.42s-.23,2.37-.32,3.56c-.09,1-.17,1.9-.24,2.84-.13,1.43-.22,2.85-.32,4.27a1,1,0,0,1,0,.17c-.06.85-.11,1.73-.17,2.58v0c-.16,2.77-.28,5.54-.4,8.31,0,1.07-.09,2.11-.11,3.16,0,.24,0,.49,0,.73,0,.86,0,1.7-.06,2.56,0,.34,0,.67,0,1,0,.94-.05,1.87-.06,2.81,0,1.13,0,2.28,0,3.44s0,2.55,0,3.82c0,1.11,0,2.22,0,3.33,0,1,0,1.91,0,2.88,0,.48,0,1,0,1.43,0,.65,0,1.32.05,2,0,1.52.07,3,.13,4.57,0,1.1.07,2.21.13,3.31,0,.7,0,1.4.09,2.09s.07,1.67.11,2.48c0,1.1.12,2.18.18,3.26s.11,2.31.21,3.48q.31,5,.71,9.92l.3,3.55c2.06,23.31,6,46.17,13.46,68.43,1.42,4.23,2.91,8.42,4.65,12.48a83.4,83.4,0,0,0,7.1,13.44c.16.25.35.5.51.76l.31.46.41.6.42.57c.12.18.28.39.41.56l.47.61.51.66c.23.3.46.58.69.86s.27.33.42.49a39.42,39.42,0,0,0,3.38,3.52,4.81,4.81,0,0,0,.42.38c.14.14.29.26.43.38s.28.24.43.36c.32.27.66.54,1,.78h0c.17.14.34.26.51.38l.5.36.54.35,0,0c.16.11.33.21.5.31s.35.22.54.32.36.2.53.31c.36.19.72.38,1.09.56l1.09.5.52.21.07,0h0c.34.15.69.27,1,.38a36.94,36.94,0,0,0,12.9,2.29,37.47,37.47,0,0,0,5.93-.46,56.33,56.33,0,0,0,10.89-2.82q1.14-.48,2.31-1c9-4.58,19.41-14.92,27.26-37.75,1.75-5.09,4.41-11.36,6.76-19,.17-.51.32-1,.48-1.54,1.44-4.87,2.87-10.2,4.22-16a320.26,320.26,0,0,0,7.83-84.87q-.24-6.17-.74-12.53c-.09-1.15-.18-2.3-.28-3.45,0-.7-.12-1.39-.17-2.1v0c-.4-4.1-.87-8.27-1.43-12.48a336.14,336.14,0,0,0-13.35-58.85c0-.05,0-.11-.06-.16-.08-.26-.16-.51-.26-.77s-.09-.27-.12-.4-.18-.55-.29-.82-.16-.49-.23-.73a3,3,0,0,1-.13-.36c0-.1-.08-.21-.1-.3a1.71,1.71,0,0,0-.07-.21c-.18-.59-.39-1.16-.6-1.74s-.39-1.18-.6-1.76c-1-2.82-2-5.64-3-8.44-.22-.59-.43-1.19-.65-1.77s-.44-1.17-.67-1.74c-.29-.79-.59-1.57-.88-2.35-1-2.56-2-5.08-3-7.62a1.12,1.12,0,0,0-.05-.13c-.4-.95-.79-1.91-1.2-2.85C1029.1,477.34,1020.9,464.09,1009.69,452.64Zm-7.57,165.15-.22,0c-.48.08-1,.14-1.46.18l-.74,0-.89,0a5.24,5.24,0,0,0-.56,0c-.11,0-.22,0-.31,0s-.36,0-.56,0h-.19l-.66-.06-.13,0c-.24,0-.48-.06-.71-.11a.33.33,0,0,0-.14,0l-.7-.13-.09,0-.73-.17h0l-.77-.22a4.11,4.11,0,0,1-.46-.15l-.3-.1-.75-.28c-.26-.12-.53-.22-.79-.36l-.48-.23-.25-.12-.54-.29a.47.47,0,0,1-.09-.06l-.61-.37-.13-.09a10.2,10.2,0,0,1-1.21-.86l-.07,0-.55-.45a.53.53,0,0,0-.11-.09l-.52-.47c-.17-.17-.35-.33-.52-.52l-.61-.66c-.16-.19-.32-.37-.46-.57s-.37-.49-.53-.73a6.51,6.51,0,0,1-.43-.64l-.06-.08c-.13-.22-.25-.42-.36-.62a17.76,17.76,0,0,1,7-24.54c8.92-4.83,19.77-1.83,24.53,6.92l0,0c.11.21.21.42.31.63s.19.39.27.57a.14.14,0,0,1,0,.07c.09.18.17.38.24.55s.18.5.26.73.15.42.21.65a17.41,17.41,0,0,1,.66,3.41c0,.2,0,.38.05.58,0,.44,0,.88,0,1.33s0,.86-.07,1.28a18.13,18.13,0,0,1-.31,2c-.05.18-.08.37-.13.56a.19.19,0,0,0,0,.09c-.06.21-.11.41-.17.61s-.15.5-.24.75-.12.35-.17.52-.16.44-.26.65-.31.68-.47,1a7,7,0,0,1-.4.76c-.1.19-.21.39-.33.59l-.3.47a5.72,5.72,0,0,1-.32.48c-.06.09-.13.18-.18.27l-.37.48-.35.45c-.17.21-.34.4-.52.59s-.28.32-.44.47l0,.06-.49.47-.09.08c-.16.17-.32.31-.48.45l-.71.59-.49.38h0c-.17.13-.33.23-.5.35l-.24.16-.51.32-.66.4-.26.14c-.25.13-.49.27-.75.38s-.44.2-.65.29l-.2.09-.55.23-.27.1h-.05l-.5.18-1,.28-.69.16C1002.6,617.7,1002.37,617.74,1002.12,617.79Zm-7.86-69.11a8.29,8.29,0,1,1,7.88,14.59,8.29,8.29,0,0,1-11.23-3.35A8.29,8.29,0,0,1,994.26,548.68Z" transform="translate(-664.61 -445.31)"/><path class="cls-6" d="M1005.5,552a8.29,8.29,0,0,1-3.37,11.23,8.29,8.29,0,0,1-11.23-3.35,8.3,8.3,0,1,1,14.6-7.88Z" transform="translate(-664.61 -445.31)"/><path class="cls-6" d="M1015,591.85l0,0c.11.21.21.42.31.63s.19.39.27.57a.14.14,0,0,1,0,.07c.09.18.17.38.24.55s.18.5.26.73.15.42.21.65a17.41,17.41,0,0,1,.66,3.41c0,.2,0,.38,0,.58,0,.44,0,.88,0,1.33s0,.86-.07,1.28a18.13,18.13,0,0,1-.31,2c0,.18-.08.37-.13.56a.19.19,0,0,0,0,.09c-.06.21-.11.41-.17.61s-.15.5-.24.75-.12.35-.17.52-.16.44-.26.65-.31.68-.47,1a7,7,0,0,1-.4.76c-.1.19-.21.39-.33.59l-.3.47a5.72,5.72,0,0,1-.32.48c-.06.09-.13.18-.18.27l-.37.48-.35.45c-.17.21-.34.4-.52.59s-.28.32-.44.47l-.05.06-.49.47-.09.08c-.16.17-.32.31-.48.45l-.71.59-.49.38h0c-.17.13-.33.23-.5.35l-.24.16-.51.32-.66.4-.26.14c-.25.13-.49.27-.75.38s-.44.2-.65.29l-.2.09-.55.23-.27.1h0l-.5.18-1,.28-.69.16q-.36.09-.72.15l-.22,0c-.48.08-1,.14-1.46.18l-.74,0-.89,0a5.24,5.24,0,0,0-.56,0c-.11,0-.22,0-.31,0s-.36,0-.56,0h-.19l-.66-.06-.13,0c-.24,0-.48-.06-.71-.11a.33.33,0,0,0-.14,0l-.7-.13-.09,0-.73-.17h0l-.77-.22a4.11,4.11,0,0,1-.46-.15l-.3-.1-.75-.28c-.26-.12-.53-.22-.79-.36l-.48-.23-.25-.12-.54-.29a.47.47,0,0,1-.09-.06l-.61-.37-.13-.09a10.2,10.2,0,0,1-1.21-.86l-.07,0-.55-.45a.53.53,0,0,0-.11-.09l-.52-.47c-.17-.17-.35-.33-.52-.52l-.61-.66c-.16-.19-.32-.37-.46-.57s-.37-.49-.53-.73a6.51,6.51,0,0,1-.43-.64l-.06-.08c-.13-.22-.25-.42-.36-.62a17.76,17.76,0,0,1,7-24.54C999.37,580.1,1010.22,583.1,1015,591.85Z" transform="translate(-664.61 -445.31)"/><path class="cls-5" d="M940.18,680.88c.32,3,.68,5.45.85,8,1.18,18.29,3.68,36.33,9.16,53.88,1,3.39,2.35,6.71,3.33,10.11.7,2.41,0,4.34-2.86,4.59-13.46,1.16-22.92,8.17-29.29,19.82-.18.32-.77.44-1.86,1a17.34,17.34,0,0,1-1.13-3.13c-2.37-20.53-3.62-41-1.51-61.74,1.44-14,9.46-23.38,20-31.38C937.52,681.48,938.54,681.41,940.18,680.88Z" transform="translate(-664.61 -445.31)"/><path class="cls-4" d="M1014.16,946.94l8.52,3.68-6.93-6.18c-14.42-12.85-41.5-11-58,3.9l1.79,2.39C977.3,940,995.15,938.73,1014.16,946.94Z" transform="translate(-664.61 -445.31)"/><path class="cls-4" d="M1135,937a45.55,45.55,0,0,0-53.58,21.86l-6.7,12.51,9.17-10.83c13-15.4,29.58-22.14,50.56-20.61l13.12,1Z" transform="translate(-664.61 -445.31)"/><path class="cls-4" d="M880.39,966.6l1.49,2.59c19.76-8.94,37.31-9,53.64-.15l12.64,6.84-11-9.3C921.66,953.38,898.83,953.39,880.39,966.6Z" transform="translate(-664.61 -445.31)"/><path class="cls-4" d="M1022.82,998l-8.37,10.76,10.51-8.68c16.72-13.82,34.53-17.5,54.44-11.27l12.33,3.86-11.12-6.58C1060.09,973.93,1034.63,982.8,1022.82,998Z" transform="translate(-664.61 -445.31)"/><path class="cls-1" d="M664.61,1278.15h26.76v142H664.61Zm9.67,0h85.45v25.78H674.28Zm0,58.59H749v25.78H674.28Zm0,57.62h85.45v25.78H674.28Z" transform="translate(-664.61 -445.31)"/><path class="cls-1" d="M829.2,1421.61a50.88,50.88,0,0,1-24.12-6.08l-.23-.12a41.38,41.38,0,0,1-17.58-18.07q-6.06-11.86-6-28.66v-39q0-16.8,6-28.66a41.7,41.7,0,0,1,17.58-18.12q11.52-6.26,27.73-6.25a49.13,49.13,0,0,1,23.93,5.76,47.07,47.07,0,0,1,17.43,16.75q6.88,11,9.52,26.51H855.73a35.81,35.81,0,0,0-4.83-12,23.22,23.22,0,0,0-7.91-7.62,20.65,20.65,0,0,0-10.4-2.64,25,25,0,0,0-12.79,3.08,20,20,0,0,0-8.06,9,33.07,33.07,0,0,0-2.78,14.21v39a32.89,32.89,0,0,0,2.78,14.16,19.94,19.94,0,0,0,8.06,8.94,24.9,24.9,0,0,0,12.79,3.08,21.42,21.42,0,0,0,10.55-2.59,22.12,22.12,0,0,0,7.91-7.57,35.18,35.18,0,0,0,4.69-12.11h27.73q-2.73,15.53-9.62,26.51a47.25,47.25,0,0,1-17.38,16.75,48.83,48.83,0,0,1-23.88,5.76H829.2Z" transform="translate(-664.61 -445.31)"/><path class="cls-1" d="M907.88,1278.05h26.76v142.09H907.88Zm10.64,59.18h49.41a12.88,12.88,0,0,0,7.23-2,13.35,13.35,0,0,0,4.83-5.86,22.45,22.45,0,0,0,1.81-8.79,21.27,21.27,0,0,0-1.71-8.79,13.35,13.35,0,0,0-4.83-5.86,13,13,0,0,0-7.32-2.05H918.53v-25.78h51.56a39.7,39.7,0,0,1,20.61,5.27,35.75,35.75,0,0,1,13.77,14.89,53.44,53.44,0,0,1,0,44.62,35.55,35.55,0,0,1-13.82,14.89,39.74,39.74,0,0,1-20.56,5.27H918.53v-25.76Zm29.88,21.39,28.61-4.49,38.28,66H982.87Z" transform="translate(-664.61 -445.31)"/><path class="cls-1" d="M1064,1420.14H1036.3v-142H1064Z" transform="translate(-664.61 -445.31)"/><path class="cls-1" d="M1093.32,1278.15h26.76v142h-26.76Zm13.48,116.21h34.08q13.18,0,20.41-6.35t7.23-18v-41.8q0-11.62-7.23-18t-20.41-6.35H1106.8v-25.78h33.5q17.78,0,30.32,6a42.21,42.21,0,0,1,19.09,17.38q6.54,11.43,6.54,27.54v40.23q0,15.33-6.3,26.76a42.94,42.94,0,0,1-18.9,17.77q-12.6,6.35-30.86,6.35h-33.4v-25.77Z" transform="translate(-664.61 -445.31)"/><path class="cls-1" d="M1262.27,1278.15h17l54.3,142h-28.81l-34-97-34,97H1208Zm-28.22,93.46h74.71v25.78h-74.71Z" transform="translate(-664.61 -445.31)"/></svg>