<svg width="2049" height="322" viewBox="0 0 2049 322" fill="none" xmlns="http://www.w3.org/2000/svg">
<path d="M170.669 83.0279C180.608 82.1039 187.341 91.1378 195.536 93.9494C204.032 96.864 216.601 94.6025 222.511 100.785C228.42 106.967 225.772 119.608 228.367 128.298C230.872 136.681 239.57 143.79 238.33 153.814C237.09 163.838 226.408 172.747 221.746 181.797C216.913 191.178 216.456 203.615 208.861 211.052C201.267 218.489 188.971 218.539 179.547 223.118C170.457 227.536 161.306 238.046 151.367 238.969C141.428 239.893 134.695 230.859 126.5 228.047C118.005 225.133 105.435 227.394 99.5258 221.211C93.6163 215.03 96.2648 202.389 93.669 193.699C91.1642 185.315 82.4659 178.206 83.7063 168.182C84.9467 158.159 95.6285 149.249 100.29 140.2C105.124 130.818 105.58 118.382 113.175 110.945C120.769 103.508 133.066 103.458 142.489 98.8786C151.579 94.4611 160.731 83.9507 170.669 83.0279Z" stroke="url(#paint0_linear)" stroke-width="1.6" stroke-miterlimit="10"/>
<path d="M173.872 81.7082C183.98 81.1617 190.443 90.663 198.637 93.864C207.13 97.1825 219.957 95.3741 225.699 101.928C231.442 108.483 228.257 121.294 230.543 130.279C232.75 138.946 241.281 146.559 239.626 156.753C237.971 166.947 226.796 175.625 221.712 184.686C216.442 194.079 215.487 206.771 207.496 214.067C199.505 221.363 187.043 220.922 177.313 225.226C167.927 229.377 158.237 239.751 148.13 240.298C138.022 240.844 131.559 231.343 123.365 228.142C114.872 224.823 102.045 226.632 96.3028 220.077C90.5598 213.523 93.7453 200.712 91.4586 191.727C89.2523 183.06 80.7205 175.447 82.3756 165.253C84.0307 155.059 95.2062 146.381 100.29 137.32C105.56 127.926 106.515 115.235 114.506 107.939C122.497 100.642 134.959 101.083 144.689 96.7799C154.075 92.6284 163.765 82.2547 173.872 81.7082Z" stroke="url(#paint1_linear)" stroke-width="1.6" stroke-miterlimit="10"/>
<path d="M177.169 80.4705C187.432 80.3159 193.606 90.2846 201.781 93.8824C210.256 97.6131 223.325 96.2781 228.884 103.205C234.444 110.132 230.708 123.098 232.669 132.372C234.56 141.318 242.904 149.439 240.823 159.79C238.743 170.141 227.073 178.563 221.563 187.62C215.85 197.009 214.379 209.941 205.994 217.078C197.607 224.215 184.998 223.266 174.967 227.274C165.291 231.142 155.062 241.356 144.798 241.511C134.534 241.665 128.361 231.697 120.185 228.099C111.711 224.368 98.6417 225.703 93.0821 218.776C87.5225 211.849 91.258 198.883 89.2974 189.61C87.4062 180.663 79.0626 172.542 81.1431 162.191C83.2237 151.84 94.8929 143.418 100.403 134.361C106.116 124.973 107.587 112.04 115.972 104.903C124.359 97.7665 136.968 98.7157 146.999 94.7069C156.675 90.8395 166.905 80.6239 177.169 80.4705Z" stroke="url(#paint2_linear)" stroke-width="1.6" stroke-miterlimit="10"/>
<path d="M180.586 79.3602C190.993 79.613 196.852 90.0467 204.993 94.0507C213.433 98.2022 226.728 97.3597 232.086 104.662C237.445 111.963 233.146 125.064 234.766 134.619C236.329 143.837 244.462 152.469 241.942 162.965C239.423 173.461 227.266 181.601 221.323 190.636C215.162 200.003 213.159 213.16 204.378 220.118C195.597 227.076 182.858 225.602 172.536 229.298C162.578 232.863 151.807 242.893 141.4 242.64C130.993 242.387 125.133 231.954 116.992 227.95C108.553 223.798 95.2572 224.641 89.8989 217.339C84.5407 210.038 88.8395 196.936 87.2192 187.381C85.6564 178.164 77.5238 169.531 80.0429 159.035C82.562 148.541 94.7191 140.4 100.662 131.364C106.823 121.997 108.826 108.841 117.607 101.883C126.388 94.9244 139.128 96.3985 149.45 92.7025C159.408 89.1371 170.179 79.1073 180.586 79.3602Z" stroke="url(#paint3_linear)" stroke-width="1.6" stroke-miterlimit="10"/>
<path d="M184.107 78.3611C194.642 79.0359 200.166 89.9322 208.257 94.3496C216.643 98.9289 230.15 98.6005 235.29 106.277C240.43 113.953 235.555 127.169 236.817 136.999C238.034 146.481 245.933 155.628 242.965 166.253C239.996 176.878 227.354 184.71 220.975 193.707C214.36 203.033 211.81 216.398 202.636 223.158C193.463 229.917 180.612 227.902 170.006 231.266C159.775 234.512 148.462 244.331 137.927 243.656C127.391 242.981 121.868 232.085 113.777 227.667C105.39 223.088 91.8837 223.417 86.7436 215.74C81.6035 208.064 86.4788 194.848 85.2168 185.018C83.9992 175.536 76.1002 166.39 79.0687 155.764C82.0373 145.139 94.6797 137.307 101.059 128.31C107.673 118.984 110.224 105.619 119.398 98.8594C128.571 92.1002 141.422 94.1147 152.028 90.7507C162.26 87.5065 173.571 77.6876 184.107 78.3611Z" stroke="url(#paint4_linear)" stroke-width="1.6" stroke-miterlimit="10"/>
<path d="M187.666 77.4642C198.314 78.5739 203.48 89.9304 211.504 94.7686C219.821 99.7841 233.519 99.9878 238.425 108.038C243.329 116.088 237.865 129.399 238.754 139.495C239.612 149.233 247.254 158.898 243.825 169.637C240.396 180.376 227.275 187.875 220.453 196.813C213.381 206.079 210.266 219.635 200.702 226.176C191.139 232.717 178.197 230.144 167.316 233.157C156.82 236.064 144.968 245.646 134.319 244.536C123.671 243.426 118.504 232.07 110.482 227.232C102.165 222.216 88.4664 222.013 83.5611 213.963C78.6571 205.913 84.1208 192.601 83.2316 182.506C82.3735 172.767 74.7322 163.103 78.1609 152.364C81.5897 141.624 94.7115 134.126 101.533 125.188C108.605 115.921 111.72 102.366 121.284 95.8244C130.847 89.2833 143.789 91.8563 154.67 88.8434C165.166 85.936 177.017 76.3532 187.666 77.4642Z" stroke="url(#paint5_linear)" stroke-width="1.6" stroke-miterlimit="10"/>
<path d="M191.346 76.6943C202.092 78.2547 206.876 90.0666 214.815 95.3314C223.045 100.789 236.917 101.545 241.568 109.968C246.219 118.391 240.154 131.775 240.655 142.128C241.138 152.115 248.497 162.296 244.598 173.133C240.697 183.971 227.105 191.11 219.838 199.971C212.304 209.158 208.611 222.887 198.661 229.19C188.712 235.492 175.699 232.345 164.554 234.989C153.803 237.54 141.415 246.858 130.668 245.299C119.922 243.739 115.138 231.927 107.199 226.662C98.9694 221.204 85.0974 220.448 80.4462 212.025C75.7962 203.603 81.8604 190.219 81.3594 179.865C80.8764 169.878 73.5168 159.698 77.4165 148.86C81.3175 138.022 94.9091 130.883 102.176 122.022C109.71 112.836 113.404 99.1065 123.353 92.8038C133.303 86.5012 146.315 89.6483 157.46 87.0033C168.211 84.4531 180.599 75.1351 191.346 76.6943Z" stroke="url(#paint6_linear)" stroke-width="1.6" stroke-miterlimit="10"/>
<path d="M195.088 76.0631C205.916 78.0873 210.295 90.3498 218.131 96.0473C226.252 101.953 240.28 103.281 244.659 112.074C249.039 120.867 242.362 134.303 242.459 144.903C242.553 155.128 249.607 165.827 245.225 176.746C240.844 187.665 226.787 194.417 219.071 203.183C211.074 212.269 206.787 226.152 196.454 232.195C186.122 238.237 173.062 234.502 161.663 236.758C150.668 238.936 137.745 247.964 126.918 245.94C116.091 243.915 111.711 231.653 103.875 225.955C95.7535 220.049 81.7256 218.722 77.3465 209.929C72.9674 201.136 79.6439 187.7 79.5469 177.099C79.4534 166.874 72.3993 156.176 76.7808 145.257C81.1624 134.338 95.219 127.586 102.935 118.82C110.932 109.734 115.219 95.8507 125.552 89.8081C135.884 83.7656 148.944 87.5011 160.343 85.2444C171.337 83.0669 184.26 74.039 195.088 76.0631Z" stroke="url(#paint7_linear)" stroke-width="1.6" stroke-miterlimit="10"/>
<path d="M198.917 75.5612C209.808 78.0623 213.759 90.7695 221.474 96.9055C229.47 103.266 243.632 105.183 247.72 114.345C251.808 123.506 244.512 136.971 244.189 147.806C243.879 158.259 250.603 169.474 245.729 180.459C240.856 191.443 226.345 197.781 218.18 206.43C209.717 215.397 204.823 229.413 194.113 235.175C183.404 240.937 170.318 236.597 158.679 238.448C147.45 240.234 133.998 248.943 123.106 246.442C112.215 243.941 108.264 231.234 100.549 225.098C92.5531 218.737 78.391 216.82 74.3031 207.658C70.2152 198.497 77.5114 185.033 77.8338 174.197C78.1442 163.744 71.4197 152.529 76.2938 141.544C81.1666 130.56 95.6775 124.222 103.842 115.573C112.306 106.606 117.2 92.5899 127.91 86.8278C138.619 81.0657 151.705 85.4064 163.344 83.5548C174.572 81.7691 188.026 73.06 198.917 75.5612Z" stroke="url(#paint8_linear)" stroke-width="1.6" stroke-miterlimit="10"/>
<path d="M202.805 75.2007C213.743 78.192 217.243 91.3354 224.816 97.9148C232.666 104.735 246.941 107.26 250.719 116.786C254.499 126.311 246.572 139.779 245.815 150.84C245.087 161.509 251.455 173.24 246.081 184.27C240.708 195.301 225.752 201.197 217.137 209.71C208.204 218.534 202.689 232.662 191.61 238.122C180.53 243.583 167.442 238.625 155.573 240.051C144.126 241.427 130.148 249.789 119.211 246.797C108.274 243.806 104.774 230.662 97.2006 224.083C89.3508 217.262 75.0761 214.737 71.2974 205.212C67.5175 195.687 75.4452 182.218 76.2014 171.158C76.9301 160.488 70.5615 148.758 75.9354 137.727C81.3092 126.697 96.2646 120.8 104.88 112.288C113.812 103.464 119.328 89.3352 130.407 83.875C141.487 78.4149 154.575 83.3729 166.443 81.9467C177.892 80.5709 191.868 72.2081 202.805 75.2007Z" stroke="url(#paint9_linear)" stroke-width="1.6" stroke-miterlimit="10"/>
<path d="M206.756 74.996C217.719 78.4906 220.745 92.0619 228.159 99.0884C235.843 106.371 250.207 109.523 253.659 119.409C257.112 129.295 248.544 142.741 247.34 154.014C246.179 164.889 252.167 177.131 246.285 188.188C240.403 199.245 225.015 204.674 215.947 213.028C206.546 221.69 200.398 235.907 188.954 241.045C177.51 246.182 164.444 240.591 152.363 241.574C140.708 242.522 126.214 250.51 115.249 247.015C104.286 243.521 101.26 229.949 93.8462 222.923C86.1618 215.64 71.7984 212.488 68.3457 202.602C64.8929 192.716 73.4606 179.271 74.6651 167.997C75.8264 157.122 69.8377 144.88 75.7197 133.823C81.6017 122.766 96.9898 117.337 106.058 108.983C115.459 100.322 121.607 86.1044 133.051 80.9666C144.495 75.8289 157.561 81.4196 169.642 80.4369C181.297 79.4889 195.792 71.5025 206.756 74.996Z" stroke="url(#paint10_linear)" stroke-width="1.6" stroke-miterlimit="10"/>
<path d="M210.78 74.9303C221.751 78.9403 224.28 92.9298 231.513 100.407C239.011 108.157 253.441 111.953 256.548 122.192C259.654 132.433 250.439 145.83 248.773 157.303C247.165 168.371 252.749 181.12 246.35 192.185C239.952 203.249 224.143 208.182 214.624 216.358C204.754 224.833 197.96 239.116 186.161 243.909C174.361 248.702 161.343 242.466 149.061 242.987C137.214 243.491 122.21 251.073 111.238 247.065C100.268 243.055 97.739 229.065 90.5052 221.588C83.0077 213.838 68.5772 210.042 65.4708 199.803C62.3644 189.562 71.5793 176.164 73.2451 164.692C74.8535 153.624 69.2699 140.875 75.6684 129.81C82.0669 118.746 97.8757 113.813 107.395 105.637C117.264 97.1615 124.058 82.8784 135.858 78.0858C147.658 73.2932 160.676 79.5287 172.957 79.0074C184.805 78.5029 199.81 70.9203 210.78 74.9303Z" stroke="url(#paint11_linear)" stroke-width="1.6" stroke-miterlimit="10"/>
<path d="M214.834 75.033C225.792 79.5692 227.8 93.9673 234.832 101.897C242.122 110.118 256.594 114.573 259.336 125.162C262.078 135.751 252.21 149.074 250.066 160.733C247.997 171.979 253.149 185.232 246.227 196.282C239.305 207.334 223.091 211.742 213.12 219.717C202.783 227.984 195.333 242.309 183.186 246.735C171.04 251.161 158.096 244.267 145.631 244.309C133.605 244.35 118.101 251.499 107.144 246.962C96.1849 242.426 94.1775 228.028 87.1451 220.098C79.8549 211.878 65.3836 207.422 62.6416 196.834C59.8995 186.244 69.7676 172.921 71.9116 161.263C73.9801 150.016 68.828 136.764 75.7502 125.713C82.6724 114.661 98.8863 110.253 108.857 102.279C119.194 94.0117 126.645 79.6866 138.791 75.2607C150.937 70.8349 163.882 77.7283 176.347 77.6864C188.372 77.6457 203.876 70.4969 214.834 75.033Z" stroke="url(#paint12_linear)" stroke-width="1.6" stroke-miterlimit="10"/>
<path d="M218.983 75.3015C229.907 80.3758 231.37 95.1694 238.182 103.554C245.243 112.246 259.731 117.377 262.089 128.309C264.447 139.24 253.92 152.461 251.285 164.289C248.743 175.699 253.438 189.448 245.985 200.465C238.533 211.482 221.929 215.339 211.508 223.089C200.706 231.124 192.589 245.466 180.105 249.503C167.621 253.541 154.778 245.979 142.145 245.523C129.958 245.083 113.965 251.771 103.041 246.696C92.1175 241.622 90.6542 226.829 83.8422 218.444C76.7809 209.752 62.2929 204.621 59.9355 193.689C57.577 182.758 68.1042 169.537 70.7395 157.709C73.2815 146.299 68.5859 132.55 76.0391 121.533C83.491 110.516 100.096 106.659 110.516 98.9086C121.318 90.8742 129.435 76.5323 141.919 72.4948C154.403 68.4572 167.246 76.0194 179.879 76.4748C192.064 76.9146 208.058 70.2285 218.983 75.3015Z" stroke="url(#paint13_linear)" stroke-width="1.6" stroke-miterlimit="10"/>
<path d="M223.115 75.7445C233.983 81.3664 234.88 96.5436 241.45 105.385C248.261 114.549 262.737 120.372 264.694 131.638C266.65 142.903 255.458 155.994 252.32 167.976C249.292 179.535 253.505 193.772 245.516 204.733C237.527 215.694 220.55 218.972 209.684 226.476C198.42 234.255 189.627 248.586 176.816 252.214C164.006 255.84 151.293 247.6 138.509 246.629C126.178 245.693 109.706 251.886 98.8381 246.264C87.9693 240.643 87.0729 225.465 80.503 216.624C73.6922 207.46 59.215 201.637 57.2591 190.371C55.3032 179.106 66.4943 166.015 69.6331 154.033C72.6604 142.474 68.4478 128.237 76.4367 117.276C84.4255 106.315 101.403 103.037 112.269 95.5333C123.533 87.7542 132.326 73.4231 145.137 69.7954C157.947 66.1689 170.66 74.4094 183.444 75.3802C195.775 76.3162 212.246 70.1226 223.115 75.7445Z" stroke="url(#paint14_linear)" stroke-width="1.6" stroke-miterlimit="10"/>
<path d="M227.336 76.3544C238.125 82.5336 238.432 98.0799 244.739 107.377C251.278 117.015 265.716 123.546 267.252 135.136C268.789 146.726 256.929 159.657 253.274 171.776C249.748 183.467 253.451 198.186 244.923 209.068C236.393 219.95 219.059 222.621 207.752 229.855C196.03 237.355 186.551 251.649 173.427 254.843C160.303 258.037 147.747 249.107 134.832 247.604C122.374 246.154 105.438 251.825 94.647 245.646C83.8574 239.467 83.5506 223.921 77.2431 214.623C70.7044 204.985 56.2667 198.455 54.7303 186.865C53.1939 175.274 65.0537 162.343 68.709 150.224C72.2348 138.534 68.5316 123.814 77.0598 112.932C85.5891 102.05 102.923 99.379 114.231 92.1452C125.953 84.6453 135.431 70.3514 148.556 67.1575C161.68 63.9637 174.236 72.8933 187.15 74.3962C199.608 75.8463 216.545 70.1752 227.336 76.3544Z" stroke="url(#paint15_linear)" stroke-width="1.6" stroke-miterlimit="10"/>
<path d="M231.569 77.1516C242.258 83.8977 241.953 99.7975 247.975 109.552C254.218 119.663 268.59 126.912 269.686 138.819C270.783 150.726 258.253 163.465 254.069 175.704C250.033 187.51 253.203 202.7 244.128 213.48C235.055 224.26 217.383 226.296 205.639 233.238C193.464 240.433 183.291 254.661 169.866 257.402C156.441 260.141 144.072 250.513 131.045 248.461C118.478 246.482 101.092 251.6 90.4031 244.854C79.7141 238.108 80.0197 222.208 73.9975 212.454C67.7548 202.343 53.383 195.093 52.2864 183.187C51.1899 171.28 63.7196 158.541 67.9034 146.302C71.9398 134.496 68.7699 119.306 77.8446 108.526C86.918 97.7458 104.589 95.7096 116.334 88.7682C128.509 81.5727 138.681 67.3447 152.106 64.6039C165.531 61.8642 177.901 71.4926 190.928 73.5443C203.495 75.523 220.881 70.4056 231.569 77.1516Z" stroke="url(#paint16_linear)" stroke-width="1.6" stroke-miterlimit="10"/>
<path d="M235.863 78.1317C246.426 85.453 245.487 101.69 251.203 111.898C257.129 122.48 271.405 130.464 272.043 142.675C272.683 154.886 259.481 167.405 254.756 179.745C250.198 191.649 252.807 207.299 243.185 217.952C233.562 228.605 215.576 229.98 203.4 236.604C190.778 243.47 179.907 257.604 166.194 259.867C152.481 262.129 140.329 251.796 127.211 249.178C114.555 246.653 96.7343 251.188 86.1712 243.866C75.6081 236.545 76.5476 220.308 70.831 210.1C64.9059 199.518 50.63 191.534 49.9912 179.323C49.3513 167.112 62.5534 154.593 67.2788 142.253C71.8365 130.349 69.2275 114.699 78.8499 104.046C88.471 93.3928 106.457 92.0181 118.634 85.3943C131.256 78.5284 142.127 64.3939 155.839 62.13C169.552 59.8674 181.704 70.2004 194.822 72.819C207.479 75.3453 225.3 70.8092 235.863 78.1317Z" stroke="url(#paint17_linear)" stroke-width="1.6" stroke-miterlimit="10"/>
<path d="M240.14 79.3063C250.553 87.2112 248.958 103.765 254.345 114.427C259.93 125.478 274.078 134.208 274.243 146.713C274.407 159.218 260.534 171.482 255.256 183.904C250.165 195.888 252.189 211.985 242.016 222.487C231.844 232.989 213.564 233.675 200.964 239.957C187.902 246.469 176.325 260.479 162.34 262.243C148.355 264.007 136.451 252.961 123.261 249.762C110.537 246.674 92.3002 250.597 81.8857 242.693C71.4724 234.788 73.0676 218.234 67.6805 207.573C62.0958 196.522 47.9469 187.791 47.7827 175.286C47.6185 162.782 61.4917 150.517 66.7697 138.095C71.8607 126.112 69.8365 110.014 80.009 99.5121C90.1814 89.0101 108.461 88.3246 121.062 82.0423C134.124 75.53 145.701 61.5201 159.685 59.756C173.67 57.9919 185.574 69.038 198.764 72.2378C211.488 75.3238 229.726 71.4013 240.14 79.3063Z" stroke="url(#paint18_linear)" stroke-width="1.6" stroke-miterlimit="10"/>
<path d="M244.414 80.6812C254.652 89.1758 252.379 106.03 257.416 117.139C262.638 128.656 276.628 138.143 276.297 150.928C275.968 163.713 261.424 175.693 255.583 188.177C249.95 200.219 251.363 216.752 240.639 227.078C229.915 237.403 211.364 237.373 198.347 243.29C184.852 249.424 172.567 263.277 158.326 264.522C144.085 265.766 132.461 254.002 119.222 250.204C106.451 246.54 87.8151 249.821 77.5768 241.326C67.3384 232.831 69.6119 215.978 64.5748 204.868C59.3532 193.351 45.3625 183.864 45.6933 171.079C46.0228 158.294 60.5672 146.314 66.4072 133.83C72.0411 121.788 70.6282 105.255 81.3519 94.9295C92.0756 84.6037 110.626 84.6337 123.644 78.7169C137.138 72.5833 149.424 58.7304 163.665 57.4852C177.906 56.2412 189.53 68.0052 202.769 71.8031C215.54 75.4667 234.176 72.1866 244.414 80.6812Z" stroke="url(#paint19_linear)" stroke-width="1.6" stroke-miterlimit="10"/>
<path d="M248.711 82.2542C258.749 91.3444 255.777 108.477 260.44 120.032C265.275 132.01 279.075 142.264 278.234 155.318C277.392 168.37 262.181 180.031 255.768 192.555C249.582 204.636 250.358 221.587 239.082 231.71C227.805 241.834 209.01 241.062 195.584 246.588C181.666 252.316 168.669 265.982 154.19 266.685C139.71 267.387 128.397 254.899 115.133 250.49C102.339 246.235 83.3242 248.842 73.286 239.752C63.2478 230.662 66.2199 213.529 61.5568 201.974C56.7222 189.996 42.9221 179.742 43.7634 166.688C44.6047 153.636 59.8166 141.975 66.2295 129.451C72.4147 117.37 71.6393 100.419 82.9155 90.2957C94.1917 80.1724 112.987 80.9442 126.413 75.4182C140.331 69.6896 153.328 56.0237 167.808 55.3214C182.287 54.6191 193.601 67.107 206.864 71.5161C219.66 75.7694 238.673 73.1639 248.711 82.2542Z" stroke="url(#paint20_linear)" stroke-width="1.6" stroke-miterlimit="10"/>
<path d="M252.992 84.0288C262.803 93.7194 259.113 111.109 263.38 123.104C267.803 135.538 281.381 146.57 280.012 159.875C278.642 173.18 262.765 184.489 255.771 197.032C249.024 209.131 249.139 226.485 237.311 236.379C225.484 246.275 206.468 244.733 192.646 249.844C178.318 255.141 164.604 268.587 149.904 268.726C135.204 268.865 124.235 255.651 110.97 250.614C98.1727 245.756 78.8034 247.659 68.9917 237.968C59.18 228.278 62.87 210.888 58.6035 198.893C54.18 186.459 40.6028 175.427 41.9714 162.122C43.3413 148.817 59.2183 137.508 66.2125 124.965C72.9597 112.866 72.8447 95.5123 84.6722 85.6179C96.4996 75.7223 115.515 77.2636 129.337 72.1534C143.666 66.8562 157.38 53.4096 172.08 53.2706C186.78 53.1316 197.748 66.3457 211.014 71.3828C223.81 76.2413 243.18 74.3381 252.992 84.0288Z" stroke="url(#paint21_linear)" stroke-width="1.6" stroke-miterlimit="10"/>
<path d="M257.267 86.0184C266.825 96.3142 262.397 113.937 266.245 126.367C270.235 139.251 283.555 151.067 281.64 164.609C279.725 178.151 263.189 189.073 255.604 201.611C248.287 213.706 247.716 231.445 235.339 241.084C222.963 250.723 203.755 248.389 189.545 253.058C174.815 257.899 160.387 271.092 145.486 270.647C130.584 270.201 119.993 256.259 106.752 250.581C93.9776 245.104 74.2751 246.275 64.7162 235.979C55.1586 225.683 59.5869 208.06 55.7387 195.631C51.749 182.746 38.4283 170.931 40.3434 157.388C42.2585 143.846 58.7947 132.924 66.3797 120.386C73.6962 108.292 74.2679 90.5521 86.6442 80.913C99.0206 71.2739 118.228 73.6085 132.438 68.9393C147.168 64.0988 161.596 50.905 176.498 51.3509C191.399 51.7967 201.99 65.7394 215.232 71.4165C228.006 76.8934 247.71 75.7237 257.267 86.0184Z" stroke="url(#paint22_linear)" stroke-width="1.6" stroke-miterlimit="10"/>
<path d="M261.534 88.2295C270.811 99.133 265.624 116.966 269.031 129.822C272.563 143.148 285.593 155.755 283.115 169.518C280.638 183.281 263.449 193.782 255.266 206.291C247.373 218.358 246.091 236.463 233.167 245.819C220.242 255.176 200.873 252.021 186.289 256.226C171.172 260.583 156.028 273.489 140.947 272.438C125.866 271.387 115.686 256.716 102.494 250.384C89.7662 244.277 69.7557 244.684 60.4785 233.781C51.2014 222.878 56.3882 205.045 52.9811 192.189C49.4492 178.862 36.4197 166.256 38.8969 152.493C41.3741 138.73 58.5634 128.229 66.7464 115.719C74.6394 103.652 75.9217 85.5474 88.8458 76.1911C101.77 66.8348 121.139 69.9891 135.723 65.7849C150.84 61.4274 165.984 48.5213 181.065 49.5723C196.146 50.6234 206.326 65.2948 219.519 71.6262C232.245 77.7347 252.257 77.326 261.534 88.2295Z" stroke="url(#paint23_linear)" stroke-width="1.6" stroke-miterlimit="10"/>
<path d="M265.743 90.6449C274.711 102.158 268.749 120.176 271.691 133.449C274.741 147.208 287.445 160.614 284.389 174.579C281.333 188.545 263.499 198.589 254.712 211.046C246.235 223.063 244.218 241.514 230.751 250.557C217.284 259.602 197.782 255.604 182.837 259.318C167.346 263.167 151.489 275.751 136.249 274.073C121.008 272.396 111.275 256.995 98.157 249.998C85.5026 243.247 65.2093 242.865 56.2413 231.351C47.2733 219.838 53.2356 201.82 50.2934 188.547C47.2434 174.788 34.5398 161.382 37.5959 147.417C40.6519 133.451 58.486 123.407 67.273 110.95C75.7497 98.9334 77.7667 80.4821 91.2336 71.4386C104.701 62.3939 124.203 66.3919 139.148 62.6779C154.639 58.8285 170.495 46.2448 185.736 47.9226C200.977 49.6005 210.709 65.0005 223.828 71.9982C236.481 78.7491 256.775 79.1314 265.743 90.6449Z" stroke="url(#paint24_linear)" stroke-width="1.6" stroke-miterlimit="10"/>
<path d="M269.915 93.2943C278.546 105.419 271.79 123.592 274.246 137.275C276.792 151.459 289.133 165.665 285.483 179.815C281.832 193.965 263.363 203.516 253.965 215.894C244.9 227.836 242.124 246.611 228.119 255.315C214.115 264.019 194.511 259.155 179.221 262.352C163.37 265.667 146.804 277.892 131.428 275.569C116.051 273.245 106.8 257.119 93.7849 249.442C81.23 242.037 60.6814 240.835 52.0502 228.711C43.419 216.586 50.1746 198.413 47.719 184.73C45.1735 170.546 32.8319 156.34 36.4823 142.19C40.1328 128.04 58.6021 118.489 68.0003 106.111C77.0654 94.1692 79.841 75.3943 93.8461 66.6899C107.85 57.9856 127.454 62.8501 142.744 59.6527C158.595 56.3378 175.161 44.1124 190.537 46.4362C205.914 48.76 215.165 64.8863 228.18 72.5623C240.736 79.9676 261.285 81.1696 269.915 93.2943Z" stroke="url(#paint25_linear)" stroke-width="1.6" stroke-miterlimit="10"/>
<path d="M274.067 96.159C282.333 108.895 274.766 127.198 276.712 141.278C278.729 155.874 290.672 170.887 286.411 185.201C282.152 199.516 263.057 208.537 253.044 220.812C243.384 232.653 239.827 251.728 225.293 260.065C210.757 268.4 191.085 262.645 175.465 265.301C159.272 268.054 142.002 279.886 126.512 276.897C111.023 273.908 102.287 257.057 89.4029 248.693C76.9738 240.623 56.1999 238.573 47.9354 225.838C39.6697 213.102 47.2367 194.8 45.2904 180.719C43.2734 166.123 31.3309 151.11 35.5914 136.796C39.8507 122.482 58.9456 113.46 68.9586 101.185C78.6181 89.3446 82.1751 70.2689 96.7099 61.9325C111.246 53.5973 130.917 59.3522 146.538 56.6965C162.73 53.9436 180.001 42.1114 195.491 45.1003C210.979 48.0892 219.715 64.9406 232.599 73.3046C245.027 81.3737 265.803 83.4242 274.067 96.159Z" stroke="url(#paint26_linear)" stroke-width="1.6" stroke-miterlimit="10"/>
<path d="M278.147 99.2591C286.017 112.605 277.625 131.006 279.039 145.474C280.505 160.471 292.01 176.289 287.126 190.747C282.242 205.205 262.536 213.662 251.904 225.806C241.646 237.52 237.286 256.872 222.226 264.809C207.167 272.746 187.462 266.078 171.529 268.168C155.011 270.335 137.042 281.736 121.465 278.062C105.888 274.387 97.7041 256.818 84.9802 247.755C72.7057 239.012 51.7364 236.087 43.8662 222.741C35.996 209.395 44.3888 190.994 42.9746 176.527C41.5089 161.529 30.0038 145.711 34.8875 131.253C39.7711 116.795 59.4772 108.338 70.1099 96.1946C80.3674 84.4798 84.7273 65.1285 99.787 57.1911C114.847 49.2538 134.552 55.922 150.485 53.8319C167.002 51.6651 184.972 40.2643 200.549 43.9387C216.125 47.6131 224.309 65.1824 237.033 74.2451C249.308 82.9889 270.277 85.9143 278.147 99.2591Z" stroke="url(#paint27_linear)" stroke-width="1.6" stroke-miterlimit="10"/>
<path d="M282.152 102.592C289.598 116.544 280.364 135.015 281.223 149.855C282.113 165.24 293.145 181.866 287.623 196.446C282.1 211.027 261.797 218.88 250.542 230.866C239.684 242.427 234.498 262.029 218.924 269.538C203.35 277.048 183.647 269.446 167.418 270.944C150.596 272.497 131.935 283.431 116.296 279.053C100.658 274.675 93.0619 256.394 80.5285 246.623C68.4374 237.197 47.3051 233.369 39.8592 219.417C32.4132 205.465 41.6473 186.994 40.788 172.154C39.8975 156.769 28.8658 140.143 34.3883 125.563C39.9107 110.982 60.2136 103.129 71.4694 91.1434C82.3274 79.5819 87.5131 59.9801 103.087 52.4706C118.661 44.9612 138.364 52.5629 154.593 51.0649C171.415 49.5117 190.076 38.5782 205.715 42.9562C221.353 47.3341 228.949 65.6152 241.482 75.3862C253.572 84.8108 274.706 88.6398 282.152 102.592Z" stroke="url(#paint28_linear)" stroke-width="1.6" stroke-miterlimit="10"/>
<path d="M286.074 106.151C293.066 120.707 282.978 139.212 283.259 154.414C283.552 170.172 294.072 187.602 287.897 202.282C281.724 216.961 260.839 224.175 248.958 235.974C237.498 247.354 231.466 267.18 215.386 274.231C199.307 281.282 179.643 272.726 163.14 273.609C146.032 274.524 126.689 284.95 111.016 279.852C95.3425 274.753 88.3712 255.766 76.0571 245.28C64.1793 235.164 42.9176 230.407 35.9259 215.851C28.9341 201.294 39.0227 182.789 38.741 167.588C38.4486 151.83 27.9286 134.399 34.103 119.72C40.2762 105.041 61.1616 97.8252 73.0418 86.0277C84.5026 74.6473 90.5344 54.8213 106.614 47.7709C122.694 40.7192 142.358 49.2761 158.86 48.3929C175.968 47.4773 195.311 37.052 210.984 42.1502C226.658 47.2484 233.629 66.2354 245.943 76.7218C257.821 86.8379 279.083 91.5945 286.074 106.151Z" stroke="url(#paint29_linear)" stroke-width="1.6" stroke-miterlimit="10"/>
<path d="M289.915 109.947C296.423 125.103 285.467 143.611 285.15 159.157C284.822 175.272 294.791 193.507 287.953 208.261C281.116 223.015 259.668 229.554 247.161 241.134C235.096 252.306 228.199 272.325 211.626 278.889C195.053 285.452 175.466 275.922 158.708 276.164C141.337 276.415 121.322 286.297 105.643 280.459C89.9639 274.623 83.6517 254.94 71.5905 243.731C59.9559 232.919 38.5996 227.207 32.092 212.053C25.5844 196.897 36.5407 178.39 36.857 162.843C37.1854 146.728 27.2167 128.493 34.0539 113.739C40.891 98.9852 62.3396 92.4465 74.8467 80.8659C86.9114 69.694 93.8085 49.6751 110.382 43.1112C126.954 36.5485 146.541 46.0786 163.299 45.8365C180.671 45.5848 200.685 35.7036 216.364 41.5412C232.044 47.3777 238.356 67.0598 250.417 78.2689C262.051 89.0801 283.408 94.7919 289.915 109.947Z" stroke="url(#paint30_linear)" stroke-width="1.6" stroke-miterlimit="10"/>
<path d="M293.644 113.977C299.638 129.724 287.802 148.201 286.865 164.074C285.893 180.53 295.272 199.563 287.757 214.367C280.244 229.171 258.252 234.996 245.119 246.331C232.451 257.265 224.668 277.448 207.615 283.492C190.562 289.537 171.092 279.015 154.102 278.592C136.489 278.154 115.817 287.452 100.161 280.86C84.5043 274.269 78.8884 253.903 67.1112 241.966C55.7499 230.451 34.3361 223.762 28.3426 208.013C22.3492 192.265 34.1851 173.789 35.1222 157.915C36.0942 141.459 26.7151 122.427 34.2294 107.622C41.7425 92.818 63.7352 86.9935 76.8678 75.6586C89.5354 64.7239 97.3193 44.5409 114.372 38.4971C131.425 32.4521 150.895 42.9745 167.885 43.3976C185.498 43.835 206.17 34.5374 221.826 41.1289C237.483 47.7204 243.098 68.0868 254.876 80.0233C266.237 91.5392 287.651 98.229 293.644 113.977Z" stroke="url(#paint31_linear)" stroke-width="1.6" stroke-miterlimit="10"/>
<path d="M297.28 118.255C302.73 134.588 290.003 152.996 288.425 169.18C286.788 185.957 295.537 205.783 287.337 220.612C279.137 235.44 256.62 240.513 242.865 251.572C229.594 262.241 220.908 282.555 203.389 288.05C185.869 293.546 166.558 282.013 149.358 280.902C131.528 279.75 110.213 288.426 94.6095 281.064C79.0057 273.702 74.122 252.664 62.6613 239.995C51.6056 227.774 30.1725 220.081 24.7232 203.747C19.2738 187.414 32.0002 169.005 33.5785 152.821C35.2156 136.044 26.4669 116.218 34.6667 101.39C42.8665 86.5617 65.3829 81.4887 79.1387 70.4294C92.4091 59.762 101.097 39.4483 118.616 33.9534C136.136 28.4573 155.446 39.99 172.646 41.101C190.476 42.2527 211.791 33.5771 227.395 40.9392C242.999 48.3012 247.883 69.3388 259.343 82.0076C270.398 94.2282 291.832 101.921 297.28 118.255Z" stroke="url(#paint32_linear)" stroke-width="1.6" stroke-miterlimit="10"/>
<path d="M300.773 122.768C305.647 139.677 292.023 157.98 289.781 174.457C287.457 191.537 295.536 212.147 286.64 226.973C277.743 241.799 254.725 246.083 240.349 256.834C226.479 267.206 216.872 287.619 198.902 292.534C180.931 297.45 161.821 284.893 144.436 283.07C126.415 281.18 104.472 289.194 88.9525 281.047C73.4338 272.898 69.3183 251.205 58.2075 237.799C47.4886 224.868 26.0759 216.15 21.2018 199.239C16.3277 182.331 29.9517 164.027 32.194 147.55C34.5178 130.47 26.439 109.86 35.3351 95.0343C44.2324 80.2083 67.2498 75.9239 81.6264 65.1726C95.496 54.8013 105.103 34.3893 123.073 29.4733C141.044 24.5572 160.155 37.1146 177.539 38.9374C195.56 40.8273 217.503 32.8133 233.023 40.9604C248.541 49.1086 252.657 70.8017 263.768 84.2076C274.485 97.1388 295.899 105.858 300.773 122.768Z" stroke="url(#paint33_linear)" stroke-width="1.6" stroke-miterlimit="10"/>
<path d="M304.166 127.515C308.435 144.989 293.904 163.149 290.979 179.898C287.947 197.26 295.317 218.645 285.714 233.441C276.111 248.237 252.618 251.694 237.623 262.107C223.157 272.152 212.613 292.627 194.209 296.932C175.804 301.237 156.937 287.641 139.393 285.083C121.206 282.432 98.6553 289.744 83.2517 280.797C67.8492 271.851 64.5391 249.516 53.8118 235.373C43.4632 221.73 22.1104 211.962 17.8416 194.488C13.5727 177.013 28.1039 158.853 31.0293 142.105C34.0614 124.743 26.6909 103.358 36.2941 88.5617C45.8984 73.7656 69.3916 70.3081 84.3866 59.896C98.8519 49.8506 109.396 29.3751 127.8 25.0703C146.205 20.7655 165.072 34.3618 182.616 36.9193C200.803 39.5703 223.354 32.2586 238.757 41.205C254.16 50.1514 257.47 72.4869 268.197 86.6298C278.545 100.274 299.898 110.04 304.166 127.515Z" stroke="url(#paint34_linear)" stroke-width="1.6" stroke-miterlimit="10"/>
<path d="M307.376 132.5C311.009 150.53 295.564 168.507 291.937 185.505C288.176 203.127 294.796 225.276 284.479 240.012C274.161 254.748 250.219 257.343 234.611 267.385C219.555 277.072 208.06 297.575 189.239 301.238C170.419 304.902 151.839 290.253 134.164 286.938C115.841 283.501 92.6994 290.074 77.4467 280.315C62.1941 270.556 59.7253 247.599 49.4162 232.717C39.4715 218.361 18.2206 207.526 14.5881 189.497C10.9556 171.468 26.4 153.491 30.0278 136.492C33.7885 118.87 27.1683 96.7219 37.4857 81.9858C47.8031 67.2497 71.7457 64.6551 87.3531 54.6133C102.409 44.9262 113.905 24.4232 132.725 20.7595C151.546 17.0959 170.125 31.7445 187.8 35.0594C206.123 38.4965 229.265 31.9243 244.518 41.6832C259.77 51.4422 262.239 74.3984 272.548 89.2808C282.494 103.637 303.744 114.471 307.376 132.5Z" stroke="url(#paint35_linear)" stroke-width="1.6" stroke-miterlimit="10"/>
<path d="M310.487 137.724C313.453 156.294 297.09 174.048 292.741 191.274C288.233 209.133 294.062 232.031 283.023 246.679C271.984 261.326 247.62 263.02 231.407 272.657C215.767 281.955 203.305 302.448 184.09 305.44C164.874 308.431 146.629 292.718 128.849 288.624C110.418 284.379 86.7076 290.17 71.6395 279.587C56.5703 269.005 54.9799 245.445 45.1227 229.824C35.6142 214.754 14.5107 202.833 11.5446 184.264C8.5784 165.694 24.9408 147.94 29.29 130.713C33.7985 112.855 27.9693 89.9565 39.0082 75.309C50.0471 60.6616 74.4115 58.9682 90.6241 49.3303C106.264 40.0327 118.727 19.5392 137.941 16.5479C157.157 13.5566 175.402 29.2694 193.183 33.3633C211.613 37.6082 235.324 31.8173 250.392 42.4008C265.461 52.9831 267.051 76.5422 276.909 92.164C286.417 107.233 307.52 119.154 310.487 137.724Z" stroke="url(#paint36_linear)" stroke-width="1.6" stroke-miterlimit="10"/>
<path d="M313.383 143.192C315.652 162.288 298.368 179.777 293.277 197.209C288.001 215.278 293.001 238.912 281.234 253.44C269.468 267.967 244.713 268.724 227.902 277.925C211.686 286.801 198.245 307.246 178.655 309.535C159.066 311.825 141.2 295.038 123.346 290.142C104.838 285.068 80.5828 290.037 65.7328 278.619C50.8828 267.201 50.2045 243.062 40.8363 226.705C31.7988 210.925 10.887 197.899 8.61837 178.803C6.34851 159.707 23.6325 142.218 28.7235 124.786C34.0003 106.717 29.0004 83.0827 40.7667 68.5551C52.5331 54.0275 77.2882 53.2713 94.0989 44.0696C110.315 35.1939 123.756 14.7484 143.346 12.4593C162.935 10.1703 180.801 26.957 198.655 31.8526C217.163 36.9269 241.418 31.9581 256.268 43.3757C271.118 54.7933 271.796 78.9325 281.165 95.2901C290.202 111.07 311.113 124.096 313.383 143.192Z" stroke="url(#paint37_linear)" stroke-width="1.6" stroke-miterlimit="10"/>
<path d="M316.104 148.9C317.646 168.505 299.439 185.688 293.59 203.298C287.527 221.552 291.656 245.905 279.157 260.28C266.658 274.656 241.544 274.44 224.145 283.171C207.36 291.593 192.931 311.949 172.99 313.504C153.049 315.06 135.61 297.191 117.714 291.475C99.1608 285.548 74.3865 289.658 59.7918 277.396C45.1971 265.135 45.4667 240.439 36.6222 223.348C28.0904 206.861 7.41721 192.712 5.8736 173.106C4.3312 153.501 22.538 136.319 28.3877 118.709C34.4506 100.454 30.3219 76.1015 42.8206 61.7261C55.3192 47.3507 80.4338 47.5664 97.8329 38.8357C114.617 30.413 129.047 10.0574 148.987 8.50182C168.928 6.94623 186.367 24.8151 204.264 30.5317C222.817 36.458 247.591 32.3485 262.186 44.6099C276.78 56.8712 276.511 81.5676 285.355 98.6587C293.888 115.147 314.562 129.296 316.104 148.9Z" stroke="url(#paint38_linear)" stroke-width="1.6" stroke-miterlimit="10"/>
<path d="M318.654 154.839C319.44 174.936 300.309 191.767 293.684 209.529C286.817 227.942 290.036 252.994 276.8 267.185C263.566 281.376 238.125 280.151 220.148 288.378C202.807 296.314 187.378 316.541 167.11 317.333C146.842 318.126 129.88 299.167 111.972 292.61C93.4078 285.812 68.1397 289.021 53.8374 275.907C39.5352 262.794 40.7863 237.566 32.5015 219.747C24.509 202.556 4.12221 187.271 3.33603 167.174C2.54985 147.078 21.6807 130.247 28.3057 112.484C35.1728 94.0715 31.9538 69.0191 45.1894 54.8283C58.4251 40.6374 83.8646 41.8623 101.841 33.6349C119.183 25.6988 134.612 5.47259 154.88 4.68042C175.148 3.88704 192.11 22.8465 210.018 29.4032C228.582 36.2008 253.85 32.9926 268.152 46.106C282.455 59.2194 281.203 84.4467 289.488 102.266C297.48 119.457 317.868 134.742 318.654 154.839Z" stroke="url(#paint39_linear)" stroke-width="1.6" stroke-miterlimit="10"/>
<path d="M321 161C321 181.569 300.948 198.004 293.53 215.891C285.841 234.434 288.11 260.163 274.137 274.137C260.163 288.11 234.434 285.841 215.891 293.53C198.004 300.948 181.569 321 161 321C140.431 321 123.996 300.948 106.109 293.53C87.5663 285.841 61.8368 288.11 47.8629 274.137C33.8902 260.163 36.1589 234.434 28.4696 215.891C21.0524 198.004 1 181.569 1 161C1 140.431 21.0524 123.996 28.4696 106.109C36.1589 87.5663 33.8902 61.8368 47.8629 47.8629C61.8368 33.8902 87.5663 36.1589 106.109 28.4696C123.996 21.0524 140.431 1 161 1C181.569 1 198.004 21.0524 215.891 28.4696C234.434 36.1589 260.163 33.8902 274.137 47.8629C288.11 61.8368 285.841 87.5663 293.53 106.109C300.948 123.996 321 140.431 321 161Z" stroke="url(#paint40_linear)" stroke-width="1.6" stroke-miterlimit="10"/>
<path d="M406.332 97.3847H433.724V114.793C437.137 109.502 442.001 105.235 448.316 101.993C454.801 98.5794 461.457 96.8727 468.284 96.8727H483.644V122.473H468.284C458.556 122.473 450.705 125.459 444.732 131.433C438.759 137.406 435.772 145.171 435.772 154.729V225.129H406.332V97.3847Z" fill="white"/>
<path d="M537.25 227.177C524.279 227.177 513.783 223.934 505.762 217.449C497.911 210.793 493.986 202.003 493.986 191.081V181.865C493.986 171.113 498.082 162.494 506.274 156.009C514.637 149.523 525.559 146.281 539.042 146.281H554.914C559.693 146.281 564.813 146.963 570.274 148.329C575.735 149.694 580.599 151.486 584.866 153.705V137.833C584.866 132.542 583.159 128.275 579.746 125.033C576.333 121.79 571.895 120.169 566.434 120.169H544.93C539.298 120.169 534.775 121.534 531.362 124.265C527.949 126.825 526.242 130.238 526.242 134.505H497.57C497.57 122.729 501.922 113.257 510.626 106.089C519.33 98.9207 530.765 95.3367 544.93 95.3367H566.434C580.77 95.3367 592.29 99.2621 600.994 107.113C609.698 114.793 614.05 125.033 614.05 137.833V225.129H586.658V209.001C582.562 214.462 577.442 218.899 571.298 222.313C565.154 225.555 559.095 227.177 553.122 227.177H537.25ZM554.914 204.137C561.741 204.137 567.885 202.259 573.346 198.505C578.807 194.579 582.647 189.459 584.866 183.145V177.001C581.965 174.611 577.869 172.734 572.578 171.369C567.287 169.833 561.741 169.065 555.938 169.065H539.81C534.69 169.065 530.509 170.345 527.266 172.905C524.194 175.465 522.658 178.793 522.658 182.889V190.057C522.658 194.323 524.279 197.737 527.522 200.297C530.765 202.857 535.031 204.137 540.322 204.137H554.914Z" fill="white"/>
<path d="M688.852 227.177C674.345 227.177 662.569 222.654 653.524 213.609C644.649 204.393 640.212 192.361 640.212 177.513V147.817C640.212 137.406 642.345 128.275 646.612 120.425C650.879 112.403 656.852 106.259 664.532 101.993C672.383 97.5554 681.343 95.3367 691.412 95.3367H707.028C712.319 95.3367 717.524 96.5314 722.644 98.9207C727.935 101.31 732.287 104.467 735.7 108.393V45.9287H764.884V225.129H737.492V207.465C733.908 213.438 729.129 218.217 723.156 221.801C717.183 225.385 711.124 227.177 704.98 227.177H688.852ZM707.284 201.833C714.623 201.833 720.937 198.931 726.228 193.129C731.689 187.155 734.847 179.817 735.7 171.113V145.513C734.505 138.174 731.604 132.201 726.996 127.593C722.559 122.985 717.183 120.681 710.868 120.681H694.484C686.975 120.681 680.916 123.326 676.308 128.617C671.871 133.907 669.652 140.819 669.652 149.353V175.721C669.652 183.571 671.7 189.886 675.796 194.665C680.063 199.443 685.439 201.833 691.924 201.833H707.284Z" fill="white"/>
<path d="M836.75 227.177C823.779 227.177 813.283 223.934 805.262 217.449C797.411 210.793 793.486 202.003 793.486 191.081V181.865C793.486 171.113 797.582 162.494 805.774 156.009C814.137 149.523 825.059 146.281 838.542 146.281H854.414C859.193 146.281 864.313 146.963 869.774 148.329C875.235 149.694 880.099 151.486 884.366 153.705V137.833C884.366 132.542 882.659 128.275 879.246 125.033C875.833 121.79 871.395 120.169 865.934 120.169H844.43C838.798 120.169 834.275 121.534 830.862 124.265C827.449 126.825 825.742 130.238 825.742 134.505H797.07C797.07 122.729 801.422 113.257 810.126 106.089C818.83 98.9207 830.265 95.3367 844.43 95.3367H865.934C880.27 95.3367 891.79 99.2621 900.494 107.113C909.198 114.793 913.55 125.033 913.55 137.833V225.129H886.158V209.001C882.062 214.462 876.942 218.899 870.798 222.313C864.654 225.555 858.595 227.177 852.622 227.177H836.75ZM854.414 204.137C861.241 204.137 867.385 202.259 872.846 198.505C878.307 194.579 882.147 189.459 884.366 183.145V177.001C881.465 174.611 877.369 172.734 872.078 171.369C866.787 169.833 861.241 169.065 855.438 169.065H839.31C834.19 169.065 830.009 170.345 826.766 172.905C823.694 175.465 822.158 178.793 822.158 182.889V190.057C822.158 194.323 823.779 197.737 827.022 200.297C830.265 202.857 834.531 204.137 839.822 204.137H854.414Z" fill="white"/>
<path d="M944.832 97.3847H972.224V114.793C975.637 109.502 980.501 105.235 986.816 101.993C993.301 98.5794 999.957 96.8727 1006.78 96.8727H1022.14V122.473H1006.78C997.056 122.473 989.205 125.459 983.232 131.433C977.259 137.406 974.272 145.171 974.272 154.729V225.129H944.832V97.3847Z" fill="white"/>
<path d="M1116.69 97.3847H1130V117.353C1133.76 110.697 1138.71 105.406 1144.85 101.481C1151.16 97.3847 1157.56 95.3367 1164.05 95.3367H1182.74C1195.71 95.3367 1206.12 99.6034 1213.97 108.137C1221.99 116.499 1226 127.593 1226 141.417V176.233C1226 191.593 1221.99 203.966 1213.97 213.353C1205.95 222.569 1195.2 227.177 1181.71 227.177H1163.03C1156.88 227.177 1150.82 225.385 1144.85 221.801C1139.05 218.217 1134.27 213.438 1130.51 207.465V276.073H1116.69V97.3847ZM1181.46 214.889C1190.84 214.889 1198.35 211.39 1203.99 204.393C1209.62 197.225 1212.43 187.838 1212.43 176.233V141.417C1212.43 131.347 1209.7 123.241 1204.24 117.097C1198.78 110.782 1191.53 107.625 1182.48 107.625H1164.05C1156.54 107.625 1149.63 110.697 1143.31 116.841C1137.17 122.814 1132.9 130.067 1130.51 138.601V182.633C1132.05 191.166 1135.89 198.675 1142.03 205.161C1148.18 211.646 1155.35 214.889 1163.54 214.889H1181.46Z" fill="white"/>
<path d="M1262.94 97.3847H1276.25V118.121C1280.01 111.635 1285.38 106.515 1292.38 102.761C1299.38 98.8354 1306.89 96.8727 1314.91 96.8727H1324.38V109.161H1314.65C1303.56 109.161 1294.43 112.745 1287.26 119.913C1280.26 127.081 1276.76 136.382 1276.76 147.817V225.129H1262.94V97.3847Z" fill="white"/>
<path d="M1388.39 227.177C1374.73 227.177 1363.73 222.91 1355.36 214.377C1347 205.673 1342.82 194.323 1342.82 180.329V142.185C1342.82 128.19 1347 116.926 1355.36 108.393C1363.9 99.6887 1375.08 95.3367 1388.9 95.3367H1409.12C1422.95 95.3367 1434.04 99.6887 1442.4 108.393C1450.94 116.926 1455.2 128.19 1455.2 142.185V180.329C1455.2 194.323 1450.94 205.673 1442.4 214.377C1433.87 222.91 1422.61 227.177 1408.61 227.177H1388.39ZM1408.61 214.889C1418.51 214.889 1426.45 211.731 1432.42 205.417C1438.56 199.102 1441.64 190.739 1441.64 180.329V142.185C1441.64 131.774 1438.65 123.411 1432.68 117.097C1426.7 110.782 1418.85 107.625 1409.12 107.625H1388.9C1379.17 107.625 1371.32 110.782 1365.35 117.097C1359.55 123.411 1356.64 131.774 1356.64 142.185V180.329C1356.64 190.739 1359.55 199.102 1365.35 205.417C1371.15 211.731 1378.83 214.889 1388.39 214.889H1408.61Z" fill="white"/>
<path d="M1539.33 225.129C1526.36 225.129 1517.06 222.398 1511.43 216.937C1505.79 211.305 1502.98 202.089 1502.98 189.289V109.673H1480.45V97.3847H1502.98V58.7287H1516.55V97.3847H1549.83V109.673H1516.55V189.289C1516.55 197.651 1518.25 203.71 1521.67 207.465C1525.08 211.049 1530.8 212.841 1538.82 212.841H1549.83V225.129H1539.33Z" fill="white"/>
<path d="M1623.14 227.177C1609.48 227.177 1598.48 222.91 1590.11 214.377C1581.75 205.673 1577.57 194.323 1577.57 180.329V142.185C1577.57 128.19 1581.75 116.926 1590.11 108.393C1598.65 99.6887 1609.83 95.3367 1623.65 95.3367H1643.87C1657.7 95.3367 1668.79 99.6887 1677.15 108.393C1685.69 116.926 1689.95 128.19 1689.95 142.185V180.329C1689.95 194.323 1685.69 205.673 1677.15 214.377C1668.62 222.91 1657.36 227.177 1643.36 227.177H1623.14ZM1643.36 214.889C1653.26 214.889 1661.2 211.731 1667.17 205.417C1673.31 199.102 1676.39 190.739 1676.39 180.329V142.185C1676.39 131.774 1673.4 123.411 1667.43 117.097C1661.45 110.782 1653.6 107.625 1643.87 107.625H1623.65C1613.92 107.625 1606.07 110.782 1600.1 117.097C1594.3 123.411 1591.39 131.774 1591.39 142.185V180.329C1591.39 190.739 1594.3 199.102 1600.1 205.417C1605.9 211.731 1613.58 214.889 1623.14 214.889H1643.36Z" fill="white"/>
<path d="M1766.11 227.177C1752.8 227.177 1742.04 223.081 1733.85 214.889C1725.83 206.526 1721.82 195.603 1721.82 182.121V142.697C1721.82 128.531 1725.83 117.097 1733.85 108.393C1742.04 99.6887 1752.71 95.3367 1765.85 95.3367H1786.84C1799.3 95.3367 1809.29 98.7501 1816.8 105.577C1824.48 112.403 1828.32 121.363 1828.32 132.457H1815C1815 124.947 1812.36 118.974 1807.07 114.537C1801.95 109.929 1795.21 107.625 1786.84 107.625H1765.85C1756.81 107.625 1749.47 110.867 1743.84 117.353C1738.37 123.667 1735.64 132.115 1735.64 142.697V182.121C1735.64 192.019 1738.37 199.955 1743.84 205.929C1749.47 211.902 1756.89 214.889 1766.11 214.889H1787.1C1795.63 214.889 1802.55 211.902 1807.84 205.929C1813.13 199.955 1815.77 192.105 1815.77 182.377H1829.08C1829.08 195.859 1825.24 206.697 1817.56 214.889C1809.88 223.081 1799.73 227.177 1787.1 227.177H1766.11Z" fill="white"/>
<path d="M1902.89 227.177C1889.23 227.177 1878.23 222.91 1869.86 214.377C1861.5 205.673 1857.32 194.323 1857.32 180.329V142.185C1857.32 128.19 1861.5 116.926 1869.86 108.393C1878.4 99.6887 1889.58 95.3367 1903.4 95.3367H1923.62C1937.45 95.3367 1948.54 99.6887 1956.9 108.393C1965.44 116.926 1969.7 128.19 1969.7 142.185V180.329C1969.7 194.323 1965.44 205.673 1956.9 214.377C1948.37 222.91 1937.11 227.177 1923.11 227.177H1902.89ZM1923.11 214.889C1933.01 214.889 1940.95 211.731 1946.92 205.417C1953.06 199.102 1956.14 190.739 1956.14 180.329V142.185C1956.14 131.774 1953.15 123.411 1947.18 117.097C1941.2 110.782 1933.35 107.625 1923.62 107.625H1903.4C1893.67 107.625 1885.82 110.782 1879.85 117.097C1874.05 123.411 1871.14 131.774 1871.14 142.185V180.329C1871.14 190.739 1874.05 199.102 1879.85 205.417C1885.65 211.731 1893.33 214.889 1902.89 214.889H1923.11Z" fill="white"/>
<path d="M2037.67 225.129C2026.57 225.129 2018.64 222.569 2013.86 217.449C2009.08 212.329 2006.69 203.795 2006.69 191.849V45.9287H2020.51V191.849C2020.51 199.358 2021.79 204.734 2024.35 207.977C2027.08 211.219 2031.52 212.841 2037.67 212.841H2045.86V225.129H2037.67Z" fill="white"/>
<defs>
<linearGradient id="paint0_linear" x1="1" y1="161" x2="313" y2="161" gradientUnits="userSpaceOnUse">
<stop stop-color="#E926C3"/>
<stop offset="1" stop-color="#FF4D86"/>
</linearGradient>
<linearGradient id="paint1_linear" x1="1" y1="161" x2="313" y2="161" gradientUnits="userSpaceOnUse">
<stop stop-color="#E926C3"/>
<stop offset="1" stop-color="#FF4D86"/>
</linearGradient>
<linearGradient id="paint2_linear" x1="1" y1="161" x2="313" y2="161" gradientUnits="userSpaceOnUse">
<stop stop-color="#E926C3"/>
<stop offset="1" stop-color="#FF4D86"/>
</linearGradient>
<linearGradient id="paint3_linear" x1="1" y1="161" x2="313" y2="161" gradientUnits="userSpaceOnUse">
<stop stop-color="#E926C3"/>
<stop offset="1" stop-color="#FF4D86"/>
</linearGradient>
<linearGradient id="paint4_linear" x1="1" y1="161" x2="313" y2="161" gradientUnits="userSpaceOnUse">
<stop stop-color="#E926C3"/>
<stop offset="1" stop-color="#FF4D86"/>
</linearGradient>
<linearGradient id="paint5_linear" x1="1" y1="161" x2="313" y2="161" gradientUnits="userSpaceOnUse">
<stop stop-color="#E926C3"/>
<stop offset="1" stop-color="#FF4D86"/>
</linearGradient>
<linearGradient id="paint6_linear" x1="1" y1="161" x2="313" y2="161" gradientUnits="userSpaceOnUse">
<stop stop-color="#E926C3"/>
<stop offset="1" stop-color="#FF4D86"/>
</linearGradient>
<linearGradient id="paint7_linear" x1="1" y1="161" x2="313" y2="161" gradientUnits="userSpaceOnUse">
<stop stop-color="#E926C3"/>
<stop offset="1" stop-color="#FF4D86"/>
</linearGradient>
<linearGradient id="paint8_linear" x1="1" y1="161" x2="313" y2="161" gradientUnits="userSpaceOnUse">
<stop stop-color="#E926C3"/>
<stop offset="1" stop-color="#FF4D86"/>
</linearGradient>
<linearGradient id="paint9_linear" x1="1" y1="161" x2="313" y2="161" gradientUnits="userSpaceOnUse">
<stop stop-color="#E926C3"/>
<stop offset="1" stop-color="#FF4D86"/>
</linearGradient>
<linearGradient id="paint10_linear" x1="1" y1="161" x2="313" y2="161" gradientUnits="userSpaceOnUse">
<stop stop-color="#E926C3"/>
<stop offset="1" stop-color="#FF4D86"/>
</linearGradient>
<linearGradient id="paint11_linear" x1="1" y1="161" x2="313" y2="161" gradientUnits="userSpaceOnUse">
<stop stop-color="#E926C3"/>
<stop offset="1" stop-color="#FF4D86"/>
</linearGradient>
<linearGradient id="paint12_linear" x1="1" y1="161" x2="313" y2="161" gradientUnits="userSpaceOnUse">
<stop stop-color="#E926C3"/>
<stop offset="1" stop-color="#FF4D86"/>
</linearGradient>
<linearGradient id="paint13_linear" x1="1" y1="161" x2="313" y2="161" gradientUnits="userSpaceOnUse">
<stop stop-color="#E926C3"/>
<stop offset="1" stop-color="#FF4D86"/>
</linearGradient>
<linearGradient id="paint14_linear" x1="1" y1="161" x2="313" y2="161" gradientUnits="userSpaceOnUse">
<stop stop-color="#E926C3"/>
<stop offset="1" stop-color="#FF4D86"/>
</linearGradient>
<linearGradient id="paint15_linear" x1="1" y1="161" x2="313" y2="161" gradientUnits="userSpaceOnUse">
<stop stop-color="#E926C3"/>
<stop offset="1" stop-color="#FF4D86"/>
</linearGradient>
<linearGradient id="paint16_linear" x1="1" y1="161" x2="313" y2="161" gradientUnits="userSpaceOnUse">
<stop stop-color="#E926C3"/>
<stop offset="1" stop-color="#FF4D86"/>
</linearGradient>
<linearGradient id="paint17_linear" x1="1" y1="161" x2="313" y2="161" gradientUnits="userSpaceOnUse">
<stop stop-color="#E926C3"/>
<stop offset="1" stop-color="#FF4D86"/>
</linearGradient>
<linearGradient id="paint18_linear" x1="1" y1="161" x2="313" y2="161" gradientUnits="userSpaceOnUse">
<stop stop-color="#E926C3"/>
<stop offset="1" stop-color="#FF4D86"/>
</linearGradient>
<linearGradient id="paint19_linear" x1="1" y1="161" x2="313" y2="161" gradientUnits="userSpaceOnUse">
<stop stop-color="#E926C3"/>
<stop offset="1" stop-color="#FF4D86"/>
</linearGradient>
<linearGradient id="paint20_linear" x1="1" y1="161" x2="313" y2="161" gradientUnits="userSpaceOnUse">
<stop stop-color="#E926C3"/>
<stop offset="1" stop-color="#FF4D86"/>
</linearGradient>
<linearGradient id="paint21_linear" x1="1" y1="161" x2="313" y2="161" gradientUnits="userSpaceOnUse">
<stop stop-color="#E926C3"/>
<stop offset="1" stop-color="#FF4D86"/>
</linearGradient>
<linearGradient id="paint22_linear" x1="1" y1="161" x2="313" y2="161" gradientUnits="userSpaceOnUse">
<stop stop-color="#E926C3"/>
<stop offset="1" stop-color="#FF4D86"/>
</linearGradient>
<linearGradient id="paint23_linear" x1="1" y1="161" x2="313" y2="161" gradientUnits="userSpaceOnUse">
<stop stop-color="#E926C3"/>
<stop offset="1" stop-color="#FF4D86"/>
</linearGradient>
<linearGradient id="paint24_linear" x1="1" y1="161" x2="313" y2="161" gradientUnits="userSpaceOnUse">
<stop stop-color="#E926C3"/>
<stop offset="1" stop-color="#FF4D86"/>
</linearGradient>
<linearGradient id="paint25_linear" x1="1" y1="161" x2="313" y2="161" gradientUnits="userSpaceOnUse">
<stop stop-color="#E926C3"/>
<stop offset="1" stop-color="#FF4D86"/>
</linearGradient>
<linearGradient id="paint26_linear" x1="1" y1="161" x2="313" y2="161" gradientUnits="userSpaceOnUse">
<stop stop-color="#E926C3"/>
<stop offset="1" stop-color="#FF4D86"/>
</linearGradient>
<linearGradient id="paint27_linear" x1="1" y1="161" x2="313" y2="161" gradientUnits="userSpaceOnUse">
<stop stop-color="#E926C3"/>
<stop offset="1" stop-color="#FF4D86"/>
</linearGradient>
<linearGradient id="paint28_linear" x1="1" y1="161" x2="313" y2="161" gradientUnits="userSpaceOnUse">
<stop stop-color="#E926C3"/>
<stop offset="1" stop-color="#FF4D86"/>
</linearGradient>
<linearGradient id="paint29_linear" x1="1" y1="161" x2="313" y2="161" gradientUnits="userSpaceOnUse">
<stop stop-color="#E926C3"/>
<stop offset="1" stop-color="#FF4D86"/>
</linearGradient>
<linearGradient id="paint30_linear" x1="1" y1="161" x2="313" y2="161" gradientUnits="userSpaceOnUse">
<stop stop-color="#E926C3"/>
<stop offset="1" stop-color="#FF4D86"/>
</linearGradient>
<linearGradient id="paint31_linear" x1="1" y1="161" x2="313" y2="161" gradientUnits="userSpaceOnUse">
<stop stop-color="#E926C3"/>
<stop offset="1" stop-color="#FF4D86"/>
</linearGradient>
<linearGradient id="paint32_linear" x1="1" y1="161" x2="313" y2="161" gradientUnits="userSpaceOnUse">
<stop stop-color="#E926C3"/>
<stop offset="1" stop-color="#FF4D86"/>
</linearGradient>
<linearGradient id="paint33_linear" x1="1" y1="161" x2="313" y2="161" gradientUnits="userSpaceOnUse">
<stop stop-color="#E926C3"/>
<stop offset="1" stop-color="#FF4D86"/>
</linearGradient>
<linearGradient id="paint34_linear" x1="1" y1="161" x2="313" y2="161" gradientUnits="userSpaceOnUse">
<stop stop-color="#E926C3"/>
<stop offset="1" stop-color="#FF4D86"/>
</linearGradient>
<linearGradient id="paint35_linear" x1="1" y1="161" x2="313" y2="161" gradientUnits="userSpaceOnUse">
<stop stop-color="#E926C3"/>
<stop offset="1" stop-color="#FF4D86"/>
</linearGradient>
<linearGradient id="paint36_linear" x1="1" y1="161" x2="313" y2="161" gradientUnits="userSpaceOnUse">
<stop stop-color="#E926C3"/>
<stop offset="1" stop-color="#FF4D86"/>
</linearGradient>
<linearGradient id="paint37_linear" x1="1" y1="161" x2="313" y2="161" gradientUnits="userSpaceOnUse">
<stop stop-color="#E926C3"/>
<stop offset="1" stop-color="#FF4D86"/>
</linearGradient>
<linearGradient id="paint38_linear" x1="1" y1="161" x2="313" y2="161" gradientUnits="userSpaceOnUse">
<stop stop-color="#E926C3"/>
<stop offset="1" stop-color="#FF4D86"/>
</linearGradient>
<linearGradient id="paint39_linear" x1="1" y1="161" x2="313" y2="161" gradientUnits="userSpaceOnUse">
<stop stop-color="#E926C3"/>
<stop offset="1" stop-color="#FF4D86"/>
</linearGradient>
<linearGradient id="paint40_linear" x1="1" y1="161" x2="313" y2="161" gradientUnits="userSpaceOnUse">
<stop stop-color="#E926C3"/>
<stop offset="1" stop-color="#FF4D86"/>
</linearGradient>
</defs>
</svg>
