<svg width="122" height="122" viewBox="0 0 122 122" fill="none" xmlns="http://www.w3.org/2000/svg">
<path d="M64.626 31.7605C68.353 31.414 70.8778 34.8017 73.951 35.856C77.1369 36.949 81.8504 36.101 84.0665 38.4195C86.2825 40.7376 85.2893 45.4781 86.2628 48.7368C87.202 51.8805 90.4639 54.5464 89.9988 58.3054C89.5336 62.0643 85.528 65.4053 83.7797 68.7988C81.9672 72.3169 81.796 76.9805 78.948 79.7696C76.1001 82.5582 71.489 82.5771 67.9553 84.2943C64.5464 85.9509 61.1147 89.8922 57.3877 90.2383C53.6606 90.5848 51.1358 87.1971 48.0627 86.1427C44.8768 85.0498 40.1633 85.8978 37.9472 83.5793C35.7311 81.2612 36.7243 76.5207 35.7509 73.262C34.8116 70.1183 31.5497 67.4524 32.0149 63.6934C32.48 59.9345 36.4857 56.5935 38.2339 53.2C40.0464 49.6819 40.2176 45.0183 43.0656 42.2292C45.9136 39.4406 50.5246 39.4217 54.0584 37.7045C57.4672 36.0479 60.899 32.1065 64.626 31.7605Z" stroke="url(#paint0_linear)" stroke-width="0.6" stroke-miterlimit="10"/>
<path d="M65.8271 31.2656C69.6175 31.0606 72.0412 34.6236 75.1139 35.824C78.2989 37.0685 83.109 36.3903 85.2622 38.8481C87.4158 41.306 86.2213 46.1103 87.0787 49.4796C87.9061 52.7298 91.1055 55.5845 90.4849 59.4072C89.8642 63.23 85.6734 66.4842 83.767 69.8822C81.7909 73.4048 81.4327 78.1641 78.436 80.9002C75.4393 83.6362 70.7662 83.4709 67.1174 85.0847C63.5976 86.6415 59.964 90.5317 56.1736 90.7366C52.3832 90.9415 49.9595 87.3785 46.8868 86.1781C43.7018 84.9337 38.8917 85.6119 36.7385 83.154C34.5849 80.6961 35.7795 75.8919 34.922 72.5226C34.0946 69.2724 30.8952 66.4177 31.5159 62.5949C32.1365 58.7722 36.3273 55.518 38.2337 52.1199C40.2098 48.5974 40.568 43.838 43.5647 41.102C46.5615 38.3659 51.2345 38.5313 54.8833 36.9174C58.4032 35.3607 62.0367 31.4705 65.8271 31.2656Z" stroke="url(#paint1_linear)" stroke-width="0.6" stroke-miterlimit="10"/>
<path d="M67.0633 30.8014C70.9121 30.7435 73.2271 34.4817 76.293 35.8309C79.4708 37.2299 84.3717 36.7293 86.4566 39.3269C88.5414 41.9245 87.1406 46.7868 87.8758 50.2644C88.585 53.6193 91.7139 56.6646 90.9337 60.5462C90.1535 64.4278 85.7775 67.5863 83.7111 70.9826C81.5687 74.5033 81.0173 79.353 77.8727 82.0293C74.7277 84.7055 69.9993 84.3496 66.2377 85.8529C62.6091 87.3032 58.7733 91.1336 54.9241 91.1915C51.0752 91.2495 48.7603 87.5113 45.6944 86.1621C42.5165 84.7631 37.6156 85.2637 35.5308 82.6661C33.4459 80.0684 34.8468 75.2062 34.1115 71.7286C33.4023 68.3737 30.2735 65.3284 31.0537 61.4468C31.8339 57.5652 36.2098 54.4067 38.2763 51.0104C40.4186 47.4897 40.9701 42.64 44.1147 39.9637C47.2597 37.2874 51.988 37.6434 55.7496 36.1401C59.3782 34.6898 63.2145 30.859 67.0633 30.8014Z" stroke="url(#paint2_linear)" stroke-width="0.6" stroke-miterlimit="10"/>
<path d="M68.3446 30.3851C72.2473 30.4799 74.4445 34.3925 77.4974 35.894C80.6622 37.4508 85.6481 37.1349 87.6574 39.8732C89.6668 42.611 88.0547 47.5241 88.6623 51.1073C89.2483 54.5637 92.2981 57.8009 91.3534 61.7369C90.4087 65.6729 85.8498 68.7254 83.6212 72.1135C81.3107 75.6262 80.5597 80.5599 77.2669 83.1692C73.974 85.7785 69.1967 85.2257 65.3258 86.6117C61.5916 87.9488 57.5527 91.7099 53.6499 91.6151C49.7472 91.5203 47.55 87.6077 44.4971 86.1061C41.3323 84.5494 36.3464 84.8653 34.3371 82.127C32.3278 79.3892 33.9398 74.4761 33.3322 70.8929C32.7462 67.4364 29.6964 64.1993 30.6411 60.2633C31.5858 56.3277 36.1447 53.2748 38.3733 49.8867C40.6838 46.374 41.4348 41.4403 44.7276 38.831C48.0205 36.2217 52.7978 36.7744 56.6687 35.3884C60.4029 34.0514 64.4423 30.2902 68.3446 30.3851Z" stroke="url(#paint3_linear)" stroke-width="0.6" stroke-miterlimit="10"/>
<path d="M69.665 30.0104C73.6159 30.2634 75.6872 34.3496 78.7212 36.0061C81.8663 37.7233 86.9312 37.6002 88.8588 40.4787C90.7863 43.3572 88.9581 48.3134 89.4313 51.9996C89.8879 55.5553 92.85 58.9853 91.7368 62.9699C90.6236 66.9544 85.8827 69.8913 83.4905 73.2651C81.0101 76.7625 80.0538 81.7744 76.6135 84.3091C73.1736 86.8438 68.3545 86.0884 64.3772 87.3499C60.5405 88.5669 56.2984 92.249 52.3476 91.996C48.3968 91.7429 46.3254 87.6568 43.2914 86.0003C40.1463 84.2831 35.0814 84.4062 33.1539 81.5277C31.2263 78.6491 33.0545 73.693 32.5813 70.0068C32.1247 66.451 29.1626 63.0211 30.2758 59.0365C31.389 55.052 36.1299 52.1151 38.5222 48.7413C41.0025 45.2439 41.9588 40.232 45.3991 37.6973C48.839 35.1626 53.6581 35.918 57.6355 34.6565C61.4726 33.4399 65.7142 29.7579 69.665 30.0104Z" stroke="url(#paint4_linear)" stroke-width="0.6" stroke-miterlimit="10"/>
<path d="M70.9996 29.6741C74.9927 30.0902 76.9301 34.3489 79.939 36.1632C83.0579 38.044 88.1948 38.1204 90.0342 41.1392C91.8733 44.1579 89.8244 49.1496 90.1578 52.9355C90.4796 56.5875 93.3451 60.2116 92.0593 64.2388C90.7735 68.266 85.8533 71.078 83.2948 74.4298C80.6427 77.9047 79.4747 82.9881 75.8884 85.441C72.302 87.8939 67.4487 86.929 63.3685 88.0589C59.4325 89.1491 54.9882 92.7422 50.9946 92.3261C47.0016 91.9099 45.0641 87.6512 42.0557 85.8369C38.9367 83.9561 33.7999 83.8797 31.9604 80.861C30.1214 77.8422 32.1703 72.8505 31.8368 69.0646C31.5151 65.4127 28.6496 61.7886 29.9354 57.7613C31.2211 53.7341 36.1418 50.9221 38.6999 47.5703C41.3519 44.0954 42.52 39.0121 46.1063 36.5591C49.6927 34.1062 54.5459 35.0711 58.6262 33.9413C62.5622 32.851 67.0065 29.2575 70.9996 29.6741Z" stroke="url(#paint5_linear)" stroke-width="0.6" stroke-miterlimit="10"/>
<path d="M72.3797 29.3854C76.4096 29.9705 78.2037 34.4 81.1806 36.3743C84.2668 38.4209 89.4688 38.7045 91.213 41.863C92.9572 45.0215 90.6827 50.0406 90.8705 53.9231C91.0516 57.6681 93.8115 61.4859 92.3491 65.55C90.8862 69.6141 85.7894 72.2913 83.0641 75.6143C80.2391 79.0591 78.854 84.2076 75.1229 86.5711C71.3918 88.9346 66.5121 87.7544 62.3329 88.7458C58.3012 89.7027 53.6556 93.1969 49.6256 92.6122C45.5957 92.0271 43.8016 87.5976 40.8247 85.6233C37.7385 83.5766 32.5365 83.2931 30.7923 80.1345C29.0486 76.976 31.3226 71.9569 31.1348 68.0744C30.9537 64.3294 28.1938 60.5116 29.6562 56.4475C31.119 52.3834 36.2159 49.7062 38.9412 46.3833C41.7662 42.9385 43.1513 37.7899 46.8824 35.4264C50.6135 33.063 55.4932 34.2431 59.6724 33.2513C63.7041 32.2949 68.3497 28.8007 72.3797 29.3854Z" stroke="url(#paint6_linear)" stroke-width="0.6" stroke-miterlimit="10"/>
<path d="M73.783 29.1487C77.8435 29.9077 79.4857 34.5062 82.424 36.6427C85.4697 38.8575 90.7301 39.3554 92.3723 42.6528C94.0145 45.9502 91.5108 50.9886 91.5472 54.9637C91.5822 58.7981 94.2275 62.8101 92.5844 66.9047C90.9413 70.9994 85.6701 73.5314 82.7768 76.8184C79.7778 80.2259 78.1702 85.432 74.2953 87.6979C70.4209 89.9639 65.5232 88.5631 61.2487 89.4093C57.1253 90.2259 52.2793 93.6114 48.2192 92.8523C44.1592 92.0933 42.5166 87.4948 39.5783 85.3583C36.5326 83.1435 31.2721 82.6456 29.6299 79.3482C27.9878 76.0508 30.4915 71.0124 30.4551 67.0373C30.42 63.2029 27.7747 59.1909 29.4178 55.0963C31.0609 51.0016 36.3321 48.4696 39.2255 45.1826C42.2244 41.7751 43.832 36.569 47.7069 34.3031C51.5813 32.0371 56.4791 33.4379 60.7535 32.5917C64.8764 31.7751 69.7225 28.3896 73.783 29.1487Z" stroke="url(#paint7_linear)" stroke-width="0.6" stroke-miterlimit="10"/>
<path d="M75.2187 28.9604C79.303 29.8984 80.7847 34.6636 83.6777 36.9646C86.6762 39.3496 91.9869 40.0687 93.5199 43.5045C95.0529 46.9399 92.3168 51.9891 92.1959 56.0523C92.0795 59.9721 94.6012 64.1777 92.7734 68.2971C90.9461 72.416 85.5045 74.793 82.4426 78.0364C79.2689 81.399 77.4334 86.6549 73.4174 88.8157C69.4014 90.9765 64.4942 89.3487 60.1295 90.0431C55.9189 90.7127 50.8742 93.9786 46.7899 93.0407C42.7056 92.1028 41.2238 87.3376 38.3309 85.0366C35.3324 82.6515 30.0216 81.9324 28.4887 78.4966C26.9557 75.0613 29.6918 70.0125 29.8127 65.9489C29.9291 62.0291 27.4074 57.8234 29.2352 53.704C31.0625 49.5851 36.504 47.2082 39.5659 43.9647C42.7397 40.6022 44.5751 35.3462 48.5911 33.1854C52.6071 31.0246 57.5143 32.6524 61.8791 31.9581C66.0897 31.2884 71.1348 28.0225 75.2187 28.9604Z" stroke="url(#paint8_linear)" stroke-width="0.6" stroke-miterlimit="10"/>
<path d="M76.677 28.8252C80.7784 29.947 82.0912 34.8758 84.9311 37.3431C87.8747 39.9007 93.2278 40.8476 94.6448 44.4196C96.0622 47.9916 93.0893 53.0421 92.8058 57.1898C92.5325 61.191 94.9207 65.5899 92.9055 69.7263C90.8903 73.8628 85.2821 76.0739 82.0512 79.2661C78.7017 82.5752 76.6335 87.8734 72.4786 89.9209C68.3237 91.9685 63.4156 90.1092 58.965 90.644C54.6722 91.16 49.4306 94.296 45.3292 93.1738C41.2279 92.0521 39.9151 87.1233 37.0752 84.656C34.1315 82.0984 28.7785 81.1514 27.3615 77.5795C25.944 74.0075 28.9169 68.9569 29.2005 64.8092C29.4738 60.8081 27.0856 56.4092 29.1008 52.2727C31.1159 48.1363 36.7242 45.9251 39.9551 42.7329C43.3046 39.4239 45.3728 34.1257 49.5277 32.0781C53.6826 30.0306 58.5907 31.8898 63.0413 31.355C67.3345 30.8391 72.5757 27.703 76.677 28.8252Z" stroke="url(#paint9_linear)" stroke-width="0.6" stroke-miterlimit="10"/>
<path d="M78.1584 28.7485C82.2696 30.059 83.4044 35.1482 86.1845 37.7831C89.0662 40.5142 94.4525 41.6962 95.7472 45.4035C97.042 49.1107 93.8291 54.1527 93.3774 58.3804C92.942 62.4584 95.1877 67.0492 92.982 71.1956C90.7762 75.3419 85.0057 77.3778 81.6049 80.5107C78.0797 83.7586 75.7742 89.09 71.4827 91.0167C67.1912 92.9433 62.2917 90.8468 57.7611 91.2153C53.3905 91.5708 47.9552 94.5662 43.8435 93.2557C39.7322 91.9452 38.5974 86.856 35.8173 84.221C32.9357 81.4899 27.5494 80.308 26.2546 76.6007C24.9599 72.8935 28.1727 67.8514 28.6244 63.6238C29.0599 59.5457 26.8142 54.9549 29.0199 50.8086C31.2256 46.6623 36.9962 44.6264 40.3969 41.4935C43.9221 38.2456 46.2277 32.9141 50.5192 30.9875C54.8106 29.0608 59.7102 31.1574 64.2408 30.7888C68.6114 30.4333 74.0471 27.4384 78.1584 28.7485Z" stroke="url(#paint10_linear)" stroke-width="0.6" stroke-miterlimit="10"/>
<path d="M79.6676 28.7239C83.7816 30.2276 84.7298 35.4737 87.4425 38.2776C90.2541 41.184 95.6655 42.6073 96.8304 46.4471C97.9953 50.2874 94.5397 55.3114 93.915 59.6137C93.3119 63.7641 95.4058 68.545 93.0063 72.6945C90.6069 76.8435 84.6786 78.6933 81.1089 81.7592C77.4079 84.9375 74.8602 90.2937 70.4352 92.0909C66.0102 93.8881 61.1287 91.5498 56.523 91.7453C52.0801 91.934 46.4538 94.7775 42.3394 93.2742C38.2254 91.7705 37.2771 86.5244 34.5644 83.7205C31.7529 80.8141 26.3414 79.3908 25.1766 75.551C24.0117 71.7107 27.4672 66.6866 28.0919 62.3844C28.695 58.234 26.6012 53.4531 29.0007 49.3036C31.4001 45.1546 37.3284 43.3048 40.8981 40.2388C44.5991 37.0606 47.1468 31.7044 51.5718 29.9072C55.9967 28.11 60.8783 30.4483 65.484 30.2528C69.9269 30.0636 75.5536 27.2201 79.6676 28.7239Z" stroke="url(#paint11_linear)" stroke-width="0.6" stroke-miterlimit="10"/>
<path d="M81.1876 28.7624C85.2971 30.4634 86.0499 35.8627 88.6871 38.8365C91.4209 41.9191 96.8476 43.59 97.8759 47.5606C98.9041 51.5317 95.2036 56.5279 94.3996 60.8998C93.6239 65.1172 95.556 70.0868 92.9601 74.2309C90.3643 78.3754 84.2841 80.0284 80.545 83.0188C76.6687 86.1189 73.8747 91.4908 69.3199 93.1505C64.765 94.8102 59.9108 92.2251 55.2364 92.2409C50.727 92.2562 44.9129 94.9369 40.8038 93.2359C36.6944 91.5348 35.9416 86.1355 33.3044 83.1617C30.5706 80.0792 25.1439 78.4082 24.1156 74.4376C23.0873 70.4666 26.7878 65.4704 27.5918 61.0985C28.3675 56.8811 26.4355 51.9115 29.0313 47.7674C31.6272 43.6228 37.7073 41.9699 41.4465 38.9795C45.3227 35.8794 48.1168 30.5075 52.6716 28.8478C57.2265 27.1881 62.0806 29.7731 66.755 29.7574C71.2645 29.7421 77.0786 27.0613 81.1876 28.7624Z" stroke="url(#paint12_linear)" stroke-width="0.6" stroke-miterlimit="10"/>
<path d="M82.7435 28.8631C86.84 30.7659 87.3887 36.3135 89.9432 39.4577C92.5912 42.7173 98.0242 44.6412 98.9082 48.7408C99.7927 52.84 95.845 57.798 94.8567 62.2333C93.9035 66.5122 95.6643 71.6679 92.8694 75.7994C90.0749 79.9309 83.8482 81.3771 79.9405 84.2835C75.8899 87.2964 72.846 92.6746 68.1644 94.1887C63.4828 95.7028 58.6669 92.8669 53.9296 92.6962C49.3594 92.5312 43.3619 95.039 39.2655 93.1361C35.169 91.2333 34.6203 85.6857 32.0658 82.5416C29.4178 79.2819 23.9848 77.358 23.1008 73.2584C22.2164 69.1592 26.1641 64.2013 27.1523 59.7659C28.1055 55.487 26.3447 50.3313 29.1397 46.1998C31.9341 42.0683 38.1608 40.6221 42.0685 37.7157C46.1191 34.7028 49.163 29.3246 53.8446 27.8105C58.5262 26.2965 63.3422 29.1323 68.0795 29.3031C72.6492 29.468 78.6466 26.9607 82.7435 28.8631Z" stroke="url(#paint13_linear)" stroke-width="0.6" stroke-miterlimit="10"/>
<path d="M84.293 29.0292C88.3688 31.1374 88.705 36.8288 91.1687 40.1442C93.7227 43.5809 99.1512 45.7646 99.8851 49.9891C100.619 54.2137 96.4219 59.1227 95.2449 63.6159C94.1097 67.9506 95.6894 73.2897 92.6935 77.4C89.6977 81.5104 83.3313 82.7396 79.2564 85.5534C75.0323 88.4706 71.7349 93.8447 66.9311 95.2051C62.1273 96.565 57.3598 93.4748 52.5659 93.1108C47.9418 92.7598 41.7646 95.0824 37.6893 92.9742C33.6135 90.8659 33.2773 85.1745 30.8136 81.8592C28.2596 78.4225 22.8306 76.2387 22.0972 72.0142C21.3637 67.7897 25.5604 62.8807 26.7374 58.3874C27.8726 54.0528 26.2929 48.7137 29.2887 44.6033C32.2846 40.4929 38.651 39.2638 42.7259 36.45C46.95 33.5328 50.2474 28.1587 55.0512 26.7983C59.855 25.4383 64.6224 28.5285 69.4164 28.8926C74.0405 29.2436 80.2172 26.921 84.293 29.0292Z" stroke="url(#paint14_linear)" stroke-width="0.6" stroke-miterlimit="10"/>
<path d="M85.8758 29.2579C89.922 31.5751 90.037 37.405 92.4023 40.8915C94.8543 44.5058 100.268 46.9546 100.845 51.301C101.421 55.6473 96.9733 60.4965 95.6026 65.041C94.2804 69.4251 95.6691 74.9449 92.4711 79.0256C89.2725 83.1063 82.7722 84.108 78.5319 86.8207C74.1361 89.6332 70.5817 94.9934 65.6601 96.1911C60.7385 97.3888 56.03 94.0402 51.1871 93.4766C46.5154 92.9328 40.1642 95.0594 36.1176 92.7422C32.0715 90.425 31.9565 84.5952 29.5912 81.1086C27.1392 77.4944 21.725 75.0455 21.1489 70.6992C20.5727 66.3529 25.0201 61.5037 26.3909 56.9591C27.7131 52.5751 26.3244 47.0553 29.5224 42.9746C32.7209 38.8939 39.2213 37.8921 43.4616 35.1794C47.8573 32.367 51.4118 27.0068 56.3333 25.8091C61.2549 24.6114 65.9635 27.96 70.8064 28.5236C75.4781 29.0674 81.8293 26.9407 85.8758 29.2579Z" stroke="url(#paint15_linear)" stroke-width="0.6" stroke-miterlimit="10"/>
<path d="M87.4636 29.5569C91.4719 32.0866 91.3573 38.0491 93.6156 41.7069C95.9567 45.4986 101.346 48.2171 101.757 52.6821C102.169 57.1471 97.4699 61.9244 95.9009 66.5139C94.3873 70.9411 95.576 76.6374 92.173 80.68C88.7705 84.7225 82.1438 85.486 77.7395 88.0891C73.1739 90.7874 69.3592 96.1229 64.3248 97.1507C59.2904 98.1781 54.652 94.5674 49.7668 93.798C45.0542 93.0556 38.5345 94.975 34.5262 92.4453C30.5178 89.9155 30.6324 83.9531 28.3741 80.2953C26.0331 76.5035 20.6436 73.785 20.2324 69.32C19.8212 64.8551 24.5199 60.0777 26.0888 55.4883C27.6024 51.0611 26.4137 45.3647 29.8167 41.3222C33.2192 37.2797 39.8459 36.5161 44.2502 33.9131C48.8159 31.2148 52.6305 25.8793 57.6649 24.8515C62.6993 23.8241 67.3377 27.4347 72.2229 28.2041C76.9355 28.9461 83.4552 27.0271 87.4636 29.5569Z" stroke="url(#paint16_linear)" stroke-width="0.6" stroke-miterlimit="10"/>
<path d="M89.0738 29.9244C93.0349 32.6699 92.6826 38.7586 94.8263 42.5867C97.0482 46.5551 102.402 49.5491 102.641 54.1283C102.881 58.7074 97.9304 63.402 96.1584 68.0292C94.4492 72.4933 95.4276 78.3622 91.8192 82.3571C88.2109 86.352 81.466 86.8675 76.8999 89.3514C72.1666 91.9261 68.09 97.2265 62.9477 98.075C57.8055 98.9235 53.2484 95.0487 48.3291 94.0667C43.5832 93.1198 36.9004 94.8204 32.9392 92.0749C28.978 89.3294 29.3304 83.2406 27.1866 79.4125C24.9647 75.4441 19.6112 72.4501 19.3717 67.871C19.1317 63.2919 24.0825 58.5973 25.8546 53.9701C27.5637 49.506 26.5853 43.637 30.1937 39.6422C33.8016 35.6473 40.5465 35.1318 45.1126 32.6479C49.8458 30.0731 53.9225 24.7727 59.0648 23.9238C64.207 23.0753 68.7641 26.9501 73.6834 27.9321C78.4297 28.8795 85.1126 27.1784 89.0738 29.9244Z" stroke="url(#paint17_linear)" stroke-width="0.6" stroke-miterlimit="10"/>
<path d="M90.6773 30.3649C94.5823 33.3292 93.9842 39.537 96.0043 43.535C98.0986 47.6791 103.404 50.9531 103.466 55.6424C103.528 60.3316 98.3251 64.9309 96.3459 69.5891C94.4367 74.0829 95.1958 80.1195 91.3811 84.0577C87.5665 87.996 80.7115 88.253 75.9863 90.6089C71.0881 93.051 66.7467 98.3047 61.5025 98.9663C56.2582 99.6278 51.7941 95.4855 46.8479 94.2856C42.0764 93.1279 35.2376 94.5988 31.3321 91.6349C27.4272 88.6705 28.0253 82.4627 26.0052 78.4647C23.9109 74.3206 18.6051 71.0466 18.5435 66.3574C18.4819 61.6682 23.6844 57.0688 25.6636 52.4106C27.5728 47.9169 26.8137 41.8803 30.6284 37.942C34.443 34.0038 41.298 33.7467 46.0232 31.3909C50.9214 28.9487 55.2628 23.695 60.507 23.0335C65.7513 22.372 70.2153 26.5142 75.1616 27.7142C79.9331 28.8714 86.7724 27.4005 90.6773 30.3649Z" stroke="url(#paint18_linear)" stroke-width="0.6" stroke-miterlimit="10"/>
<path d="M92.2802 30.8804C96.1196 34.0659 95.267 40.3861 97.156 44.5522C99.1141 48.8711 104.361 52.4287 104.237 57.2231C104.113 62.0175 98.6588 66.5099 96.4688 71.1914C94.3561 75.7072 94.8859 81.9069 90.8646 85.7791C86.8432 89.6513 79.8866 89.6401 75.005 91.8588C69.9446 94.159 65.3376 99.3538 59.9972 99.8207C54.6567 100.287 50.2978 95.8757 45.3331 94.4515C40.5441 93.0777 33.5557 94.3077 29.7163 91.1222C25.8769 87.9368 26.7295 81.6166 24.8406 77.4505C22.8824 73.1316 17.6359 69.574 17.76 64.7796C17.8836 59.9852 23.3377 55.4928 25.5277 50.8112C27.6404 46.2955 27.1106 40.0958 31.132 36.2236C35.1533 32.3514 42.1099 32.3626 46.9915 30.1438C52.0519 27.8437 56.6589 22.6489 61.9993 22.182C67.3398 21.7155 71.6987 26.1269 76.6634 27.5512C81.4524 28.925 88.4408 27.695 92.2802 30.8804Z" stroke="url(#paint19_linear)" stroke-width="0.6" stroke-miterlimit="10"/>
<path d="M93.8917 31.4703C97.656 34.8791 96.5415 41.304 98.2902 45.6369C100.103 50.1288 105.278 53.974 104.963 58.8691C104.647 63.7637 98.9427 68.1365 96.5379 72.8329C94.2184 77.3635 94.5092 83.7201 90.2806 87.5163C86.0521 91.3126 79.0038 91.0231 73.969 93.0954C68.7499 95.2436 63.876 100.368 58.4461 100.632C53.0162 100.895 48.7737 96.2121 43.8 94.5587C39.002 92.9633 31.8716 93.9408 28.1072 90.5319C24.3429 87.1231 25.4575 80.6982 23.7088 76.3654C21.8958 71.8734 16.7208 68.0282 17.0363 63.1331C17.3518 58.2385 23.0562 53.8657 25.4611 49.1693C27.7805 44.6387 27.4897 38.2821 31.7183 34.4859C35.9469 30.6897 42.9951 30.9791 48.0299 28.9068C53.249 26.7586 58.123 21.6339 63.5528 21.3705C68.9827 21.1072 73.2252 25.7901 78.1989 27.4435C82.9974 29.0385 90.1274 28.0615 93.8917 31.4703Z" stroke="url(#paint20_linear)" stroke-width="0.6" stroke-miterlimit="10"/>
<path d="M95.4969 32.1358C99.1763 35.7698 97.7925 42.2908 99.3925 46.7891C101.051 51.4518 106.143 55.5887 105.63 60.5781C105.116 65.5676 99.1619 69.8083 96.5391 74.5119C94.0089 79.0492 94.052 85.5568 89.6167 89.2672C85.1814 92.978 78.0505 92.4001 72.8674 94.3164C67.4941 96.3028 62.3514 101.345 56.8389 101.397C51.3263 101.45 47.2132 96.4943 42.2386 94.6053C37.4398 92.7834 30.1763 93.4971 26.4969 89.8631C22.8175 86.2291 24.2012 79.708 22.6013 75.2098C20.9425 70.5471 15.8511 66.4102 16.3643 61.4208C16.878 56.4313 22.8319 52.1906 25.4547 47.487C27.9849 42.9497 27.9418 36.4421 32.3771 32.7317C36.8124 29.0209 43.9433 29.5988 49.1264 27.6825C54.4997 25.6961 59.6423 20.6536 65.1549 20.6015C70.6675 20.5493 74.7805 25.5046 79.7551 27.3935C84.5536 29.2155 91.8175 28.5018 95.4969 32.1358Z" stroke="url(#paint21_linear)" stroke-width="0.6" stroke-miterlimit="10"/>
<path d="M97.1002 32.8819C100.684 36.7428 99.0237 43.3515 100.467 48.0124C101.963 52.8441 106.958 57.275 106.24 62.3534C105.522 67.4318 99.3208 71.5273 96.4764 76.2292C93.7328 80.7647 93.5184 87.417 88.8772 91.0316C84.2361 94.6463 77.0333 93.7708 71.7045 95.5218C66.1807 97.337 60.7702 102.285 55.1821 102.117C49.5941 101.95 45.6225 96.7222 40.6569 94.5928C35.8666 92.539 28.4782 92.9781 24.8936 89.1171C21.3095 85.2562 22.9701 78.6475 21.527 73.9866C20.0309 69.1549 15.0356 64.7241 15.7538 59.6456C16.4719 54.5672 22.673 50.4717 25.5174 45.7699C28.2611 41.2343 28.4755 34.582 33.1166 30.9674C37.7577 27.3527 44.9606 28.2282 50.2893 26.4772C55.8131 24.662 61.2236 19.7144 66.8117 19.8816C72.3998 20.0488 76.3713 25.2773 81.3369 27.4062C86.1272 29.46 93.5161 29.0214 97.1002 32.8819Z" stroke="url(#paint22_linear)" stroke-width="0.6" stroke-miterlimit="10"/>
<path d="M98.7002 33.7111C102.179 37.7999 100.234 44.4872 101.512 49.3081C102.836 54.3056 107.722 59.0331 106.793 64.1942C105.864 69.3553 99.4183 73.2931 96.3497 77.9841C93.3898 82.5093 92.909 89.2987 88.0624 92.8073C83.2159 96.3159 75.9524 95.133 70.4835 96.7096C64.8145 98.3437 59.1357 103.183 53.4802 102.789C47.8247 102.395 44.0073 96.8934 39.0601 94.5191C34.2873 92.2289 26.7834 92.3817 23.3045 88.2929C19.8255 84.2041 21.7706 77.5167 20.4929 72.6958C19.1685 67.6983 14.2824 62.9709 15.2113 57.8097C16.1403 52.6486 22.5863 48.7108 25.6549 44.0198C28.6148 39.4946 29.0957 32.7053 33.9422 29.1967C38.7887 25.688 46.0522 26.8709 51.5212 25.2944C57.1901 23.6603 62.869 18.8205 68.5244 19.2146C74.1799 19.6088 77.9973 25.1105 82.9445 27.4848C87.7168 29.7755 95.2212 29.6223 98.7002 33.7111Z" stroke="url(#paint23_linear)" stroke-width="0.6" stroke-miterlimit="10"/>
<path d="M100.279 34.6168C103.642 38.9344 101.406 45.6909 102.509 50.6683C103.653 55.828 108.417 60.8552 107.271 66.0923C106.125 71.3293 99.437 75.0959 96.1418 79.7672C92.9631 84.2735 92.2067 91.1927 87.1566 94.584C82.1065 97.9758 74.7931 96.4765 69.1889 97.8693C63.3797 99.3128 57.4334 104.032 51.7182 103.403C46.0029 102.773 42.3532 96.9983 37.4339 94.3741C32.6885 91.8426 25.0785 91.6992 21.7155 87.3817C18.3525 83.0641 20.5884 76.3075 19.485 71.3302C18.3413 66.1705 13.5774 61.1433 14.7234 55.9062C15.8695 50.6691 22.5573 46.9026 25.8524 42.2313C29.0311 37.725 29.7875 30.8058 34.8376 27.4145C39.8877 24.0227 47.2011 25.522 52.8053 24.1292C58.6145 22.6857 64.5608 17.9668 70.276 18.596C75.9913 19.2252 79.641 25.0002 84.5603 27.6243C89.3053 30.1559 96.9157 30.2993 100.279 34.6168Z" stroke="url(#paint24_linear)" stroke-width="0.6" stroke-miterlimit="10"/>
<path d="M101.843 35.6104C105.08 40.1571 102.546 46.9721 103.467 52.1031C104.422 57.422 109.05 62.7494 107.681 68.0556C106.312 73.3619 99.3861 76.9433 95.8618 81.5854C92.4624 86.0634 91.4215 93.104 86.1696 96.3681C80.9182 99.6322 73.5666 97.808 67.8329 99.0071C61.8889 100.25 55.6766 104.835 49.9106 103.963C44.1441 103.092 40.675 97.0445 35.7944 94.1659C31.0863 91.389 23.3805 90.9382 20.1438 86.3914C16.9071 81.8447 19.4405 75.0297 18.5196 69.8987C17.5651 64.5798 12.937 59.2524 14.3059 53.9462C15.6748 48.6399 22.6008 45.0585 26.1251 40.4164C29.5245 35.9384 30.5654 28.8979 35.8173 25.6337C41.0687 22.3696 48.4203 24.1938 54.154 22.9947C60.098 21.7517 66.3103 17.1671 72.0763 18.0386C77.8428 18.91 81.3119 24.9574 86.1925 27.8359C90.9011 30.6128 98.6068 31.0636 101.843 35.6104Z" stroke="url(#paint25_linear)" stroke-width="0.6" stroke-miterlimit="10"/>
<path d="M103.4 36.6846C106.5 41.4606 103.662 48.3241 104.392 53.6043C105.148 59.0778 109.627 64.7076 108.029 70.0755C106.432 75.4433 99.2713 78.8265 95.5164 83.4295C91.8941 87.8697 90.5602 95.0231 85.1097 98.1493C79.6587 101.275 72.282 99.1169 66.4242 100.113C60.3522 101.145 53.8756 105.582 48.0669 104.461C42.2586 103.34 38.9828 97.0212 34.1511 93.8847C29.4902 90.8588 21.7 90.0899 18.6008 85.3143C15.5011 80.5384 18.3388 73.6749 17.6089 68.3946C16.8525 62.9212 12.3741 57.2913 13.9718 51.9235C15.569 46.5556 22.7296 43.1724 26.4845 38.5695C30.1068 34.1292 31.4407 26.9758 36.8912 23.8497C42.3422 20.724 49.7189 22.8821 55.5766 21.8862C61.6487 20.8539 68.1253 16.4168 73.934 17.5376C79.7423 18.6585 83.0181 24.9777 87.8498 28.1142C92.5103 31.1401 100.301 31.9091 103.4 36.6846Z" stroke="url(#paint26_linear)" stroke-width="0.6" stroke-miterlimit="10"/>
<path d="M104.93 37.8471C107.882 42.8519 104.734 49.7522 105.265 55.1776C105.814 60.8016 110.129 66.7335 108.297 72.1553C106.466 77.577 99.0761 80.7481 95.0889 85.3021C91.2423 89.6952 89.6073 96.9519 83.9599 99.9284C78.3125 102.905 70.9232 100.404 64.9482 101.188C58.7543 102.001 52.0157 106.276 46.1742 104.898C40.3331 103.52 37.264 96.9317 32.4926 93.5332C27.8896 90.2547 20.0262 89.1576 17.0748 84.1529C14.1235 79.1482 17.2708 72.2478 16.7405 66.8225C16.1908 61.1985 11.8764 55.2666 13.7078 49.8448C15.5392 44.423 22.929 41.2519 26.9162 36.698C30.7628 32.3049 32.3977 25.0482 38.0451 22.0717C43.6925 19.0952 51.0819 21.5957 57.0569 20.812C63.2507 19.9994 69.9893 15.7241 75.8308 17.102C81.6719 18.4799 84.741 25.0684 89.5125 28.4669C94.1154 31.7458 101.979 32.8429 104.93 37.8471Z" stroke="url(#paint27_linear)" stroke-width="0.6" stroke-miterlimit="10"/>
<path d="M106.432 39.097C109.224 44.3292 105.761 51.2556 106.084 56.8207C106.418 62.5899 110.554 68.8247 108.484 74.2923C106.413 79.7599 98.799 82.705 94.5781 87.1996C90.5064 91.5351 88.5617 98.8858 82.7215 101.702C76.8813 104.518 69.4925 101.667 63.4069 102.229C57.0984 102.811 50.1005 106.912 44.2361 105.27C38.3716 103.628 35.5232 96.7727 30.8232 93.1086C26.289 89.5739 18.3644 88.1384 15.5722 82.9063C12.78 77.6742 16.2427 70.7478 15.9205 65.1826C15.5866 59.4134 11.4497 53.1787 13.5206 47.711C15.5915 42.2434 23.2051 39.2984 27.426 34.8038C31.4978 30.4682 33.4424 23.1175 39.2826 20.3015C45.1228 17.4854 52.5117 20.3361 58.5972 19.7743C64.9057 19.1919 71.9036 15.0918 77.7681 16.7336C83.6325 18.3753 86.4809 25.2307 91.1809 28.8948C95.7147 32.429 103.64 33.8649 106.432 39.097Z" stroke="url(#paint28_linear)" stroke-width="0.6" stroke-miterlimit="10"/>
<path d="M107.903 40.4316C110.525 45.8902 106.742 52.8297 106.847 58.5301C106.957 64.4395 110.902 70.9758 108.586 76.4807C106.271 81.9852 98.4395 84.6907 93.9844 89.1152C89.6866 93.3829 87.4247 100.818 81.3949 103.462C75.365 106.106 67.991 102.897 61.8025 103.228C55.387 103.572 48.1334 107.481 42.2559 105.569C36.3785 103.657 33.7642 96.5374 29.1464 92.605C24.6922 88.8114 16.7191 87.0277 14.0972 81.569C11.4753 76.1104 15.2585 69.171 15.1529 63.4705C15.0432 57.5611 11.0982 51.0248 13.4136 45.5199C15.7286 40.0154 23.5606 37.3095 28.0157 32.8854C32.3135 28.6177 34.5754 21.183 40.6052 18.5391C46.6351 15.8947 54.0091 19.1035 60.1976 18.7723C66.613 18.429 73.8667 14.5195 79.7441 16.4313C85.6216 18.3431 88.2359 25.4633 92.8537 29.3957C97.3079 33.1892 105.281 34.9729 107.903 40.4316Z" stroke="url(#paint29_linear)" stroke-width="0.6" stroke-miterlimit="10"/>
<path d="M109.343 41.8553C111.784 47.5386 107.675 54.479 107.556 60.3088C107.433 66.3522 111.171 73.1901 108.608 78.7228C106.044 84.2556 98.0004 86.7077 93.3103 91.0504C88.786 95.2399 86.1996 102.747 79.9846 105.208C73.77 107.669 66.4247 104.096 60.1405 104.186C53.6262 104.281 46.1209 107.986 40.2412 105.797C34.3615 103.608 31.9944 96.2277 27.4714 92.0243C23.1085 87.9696 15.0998 85.8277 12.6595 80.1448C10.2192 74.4615 14.3277 67.5211 14.4464 61.6913C14.5695 55.6479 10.8313 48.81 13.3952 43.2772C15.9591 37.7445 24.0024 35.2924 28.6925 30.9497C33.2168 26.7602 35.8032 19.2532 42.0182 16.7917C48.2327 14.3307 55.578 17.9045 61.8622 17.8137C68.3766 17.7193 75.8818 14.0138 81.7616 16.203C87.6413 18.3916 90.0084 25.7724 94.5313 29.9758C98.8943 34.03 106.903 36.172 109.343 41.8553Z" stroke="url(#paint30_linear)" stroke-width="0.6" stroke-miterlimit="10"/>
<path d="M110.742 43.3662C112.989 49.2716 108.551 56.2002 108.199 62.1528C107.835 68.3237 111.352 75.461 108.534 81.0126C105.717 86.5643 97.4694 88.7484 92.5447 92.999C87.7943 97.0995 84.8753 104.668 78.4806 106.935C72.0858 109.201 64.7846 105.256 58.4132 105.097C51.8085 104.933 44.0565 108.419 38.1853 105.948C32.3141 103.476 30.2081 95.8385 25.7917 91.3623C21.5312 87.0443 13.501 84.5356 11.2535 78.6298C9.00595 72.7244 13.4444 65.7958 13.7958 59.8432C14.1603 53.6723 10.6432 46.5351 13.461 40.9834C16.2784 35.4317 24.5257 33.2476 29.4504 28.997C34.2008 24.8965 37.1197 17.3278 43.5145 15.0614C49.9093 12.7945 57.2105 16.7404 63.5819 16.8991C70.1866 17.0631 77.9386 13.5765 83.8098 16.0483C89.681 18.5201 91.7869 26.1575 96.2034 30.6337C100.464 34.9522 108.494 37.4609 110.742 43.3662Z" stroke="url(#paint31_linear)" stroke-width="0.6" stroke-miterlimit="10"/>
<path d="M112.105 44.9705C114.149 51.0956 109.376 57.9987 108.784 64.0676C108.17 70.359 111.451 77.7937 108.376 83.3544C105.301 88.915 96.8577 90.8174 91.6993 94.9647C86.7229 98.9654 83.4655 106.583 76.8959 108.644C70.3258 110.705 63.0844 106.38 56.6343 105.963C49.9479 105.531 41.955 108.785 36.1036 106.024C30.2521 103.263 28.4208 95.3741 24.123 90.6233C19.9771 86.0401 11.9397 83.1553 9.89619 77.0302C7.85269 70.9051 12.6251 64.002 13.2169 57.9331C13.8308 51.6417 10.5501 44.2069 13.625 38.6463C16.6999 33.0856 25.1436 31.1832 30.302 27.036C35.2784 23.0357 38.5363 15.4181 45.1059 13.3575C51.6759 11.2965 58.9174 15.6212 65.3674 16.0379C72.0534 16.4698 80.0468 13.2164 85.8982 15.9772C91.7496 18.738 93.581 26.627 97.8788 31.3778C102.024 35.9606 110.062 38.8454 112.105 44.9705Z" stroke="url(#paint32_linear)" stroke-width="0.6" stroke-miterlimit="10"/>
<path d="M113.415 46.6629C115.243 53.0037 110.134 59.8677 109.293 66.0463C108.422 72.4514 111.451 80.18 108.115 85.7398C104.779 91.2995 96.147 92.9062 90.7558 96.9379C85.5547 100.827 81.9521 108.482 75.2131 110.325C68.4741 112.169 61.3077 107.46 54.7884 106.776C48.0305 106.067 39.8021 109.073 33.9822 106.018C28.1627 102.962 26.6194 94.827 22.4528 89.7998C18.4332 84.9506 10.4035 81.6811 8.57568 75.3398C6.7479 68.9989 11.8569 62.135 12.6977 55.9564C13.5692 49.5513 10.5396 41.8226 13.8757 36.2629C17.2121 30.7031 25.8437 29.0965 31.2349 25.0647C36.436 21.1755 40.0385 13.521 46.7776 11.6775C53.5166 9.83396 60.683 14.543 67.2023 15.2265C73.9602 15.9353 82.1886 12.93 88.0085 15.9851C93.828 19.0407 95.3713 27.1756 99.5379 32.2028C103.557 37.0521 111.587 40.3216 113.415 46.6629Z" stroke="url(#paint33_linear)" stroke-width="0.6" stroke-miterlimit="10"/>
<path d="M114.687 48.4431C116.288 54.996 110.839 61.806 109.742 68.0867C108.605 74.5974 111.369 82.6168 107.768 88.1653C104.167 93.7138 95.3566 95.0104 89.7335 98.9149C84.309 102.682 80.355 110.36 73.4533 111.975C66.5516 113.589 59.4764 108.49 52.8974 107.531C46.0774 106.537 37.6207 109.279 31.8444 105.924C26.0684 102.569 24.8272 94.1934 20.8044 88.8898C16.9237 83.7736 8.91641 80.1108 7.31558 73.5579C5.71476 67.0049 11.164 60.1949 12.261 53.9143C13.398 47.4036 10.6341 39.3841 14.2353 33.8356C17.8369 28.2871 26.6469 26.9905 32.27 23.086C37.6944 19.319 41.6484 11.6407 48.5501 10.0264C55.4518 8.41205 62.527 13.5107 69.1061 14.4698C75.926 15.4639 84.3827 12.722 90.1591 16.0769C95.935 19.4318 97.1763 27.8076 101.199 33.1112C105.079 38.2278 113.087 41.8901 114.687 48.4431Z" stroke="url(#paint34_linear)" stroke-width="0.6" stroke-miterlimit="10"/>
<path d="M115.891 50.3127C117.253 57.0737 111.462 63.815 110.101 70.1895C108.691 76.7978 111.174 85.1035 107.304 90.6295C103.435 96.1555 94.457 97.1285 88.6042 100.894C82.9582 104.527 78.6473 112.215 71.5897 113.589C64.532 114.963 57.5647 109.47 50.9367 108.227C44.0655 106.938 35.3873 109.403 29.6675 105.743C23.9478 102.083 23.022 93.4748 19.1561 87.8939C15.4268 82.5103 7.45774 78.4471 6.09555 71.6865C4.73337 64.9255 10.525 58.1842 11.8854 51.8097C13.2957 45.2014 10.8131 36.8957 14.6821 31.3697C18.5512 25.8436 27.5296 24.8707 33.3824 21.105C39.0285 17.4723 43.3393 9.78369 50.3969 8.40982C57.4546 7.03595 64.4219 12.5292 71.0499 13.7723C77.9211 15.0612 86.5993 12.5966 92.3191 16.2562C98.0388 19.9158 98.9646 28.5244 102.831 34.1053C106.56 39.4889 114.529 43.5516 115.891 50.3127Z" stroke="url(#paint35_linear)" stroke-width="0.6" stroke-miterlimit="10"/>
<path d="M117.057 52.2716C118.17 59.2353 112.034 65.893 110.403 72.3529C108.712 79.0497 110.898 87.6367 106.759 93.1295C102.619 98.6223 93.4824 99.2573 87.4026 102.872C81.5377 106.358 76.8642 114.043 69.6587 115.165C62.4527 116.287 55.6108 110.394 48.9432 108.859C42.0316 107.267 33.1404 109.439 27.4898 105.47C21.8388 101.502 21.2425 92.6671 17.546 86.8089C13.9803 81.1579 6.06652 76.6875 4.95421 69.7238C3.8419 62.7601 9.9778 56.1024 11.6087 49.6425C13.2995 42.9457 11.1135 34.3587 15.2531 28.8659C19.3927 23.3731 28.5293 22.7381 34.6091 19.1238C40.474 15.6373 45.1475 7.95222 52.353 6.83047C59.5589 5.70872 66.4009 11.601 73.0685 13.1363C79.9801 14.7281 88.8713 12.5565 94.5219 16.5253C100.173 20.4937 100.769 29.3283 104.466 35.1865C108.031 40.8375 115.945 45.3078 117.057 52.2716Z" stroke="url(#paint36_linear)" stroke-width="0.6" stroke-miterlimit="10"/>
<path d="M118.143 54.322C118.995 61.483 112.513 68.0414 110.604 74.5782C108.625 81.3541 110.5 90.217 106.088 95.6649C101.675 101.113 92.3922 101.396 86.0882 104.847C80.0072 108.175 74.967 115.842 67.6208 116.701C60.2746 117.559 53.5751 111.264 46.8797 109.428C39.9393 107.525 30.8435 109.389 25.2748 105.107C19.7061 100.826 19.4517 91.7734 15.9386 85.6393C12.5495 79.7218 4.70764 74.8371 3.85689 67.676C3.00569 60.515 9.4872 53.9566 11.3963 47.4199C13.3751 40.644 11.5001 31.781 15.9125 26.3332C20.3249 20.8853 29.6081 20.6017 35.9121 17.1511C41.9932 13.8227 47.0334 6.15564 54.3796 5.29725C61.7257 4.43886 68.4252 10.7339 75.1207 12.5697C82.061 14.4726 91.1568 12.6093 96.7255 16.8909C102.294 21.1725 102.549 30.2247 106.062 36.3588C109.451 42.2763 117.292 47.161 118.143 54.322Z" stroke="url(#paint37_linear)" stroke-width="0.6" stroke-miterlimit="10"/>
<path d="M119.164 56.4625C119.742 63.8145 112.915 70.2578 110.721 76.8616C108.448 83.7071 109.996 92.8393 105.309 98.2301C100.622 103.621 91.2039 103.54 84.6792 106.814C78.3851 109.972 72.9741 117.606 65.4962 118.189C58.0184 118.773 51.4789 112.072 44.7677 109.928C37.8103 107.706 28.5199 109.247 23.0469 104.649C17.5739 100.051 17.675 90.7895 14.3583 84.3803C11.1589 78.1977 3.40645 72.8919 2.8276 65.5398C2.2492 58.1878 9.07676 51.7445 11.2704 45.1408C13.544 38.2952 11.9957 29.1631 16.6827 23.7723C21.3697 18.3815 30.7877 18.4624 37.3123 15.1884C43.6064 12.0299 49.0174 4.39653 56.4953 3.81318C63.9732 3.22984 70.5127 9.93066 77.2238 12.0744C84.1813 14.2968 93.4716 12.7557 98.9446 17.3537C104.418 21.9517 104.317 31.2128 107.633 37.622C110.833 43.8051 118.586 49.1109 119.164 56.4625Z" stroke="url(#paint38_linear)" stroke-width="0.6" stroke-miterlimit="10"/>
<path d="M120.12 58.6895C120.415 66.2258 113.241 72.5374 110.757 79.1983C108.181 86.1031 109.388 95.4978 104.425 100.819C99.4622 106.141 89.9219 105.682 83.1807 108.767C76.6776 111.743 70.8918 119.328 63.2912 119.625C55.6907 119.922 49.3301 112.812 42.6144 110.354C35.6529 107.805 26.1774 109.008 20.814 104.09C15.4507 99.1727 15.9199 89.7124 12.813 83.03C9.81588 76.5836 2.17083 70.8517 1.87601 63.3154C1.58119 55.7791 8.75525 49.4675 11.2396 42.8067C13.8148 35.9018 12.6077 26.5072 17.571 21.1856C22.5344 15.864 32.0742 16.3233 38.8155 13.2381C45.3186 10.262 51.1044 2.67722 58.7049 2.38016C66.3055 2.08264 72.6661 9.19243 79.3817 11.6512C86.3432 14.2003 95.8188 12.9972 101.182 17.9147C106.545 22.8323 106.076 32.2925 109.183 38.9749C112.18 45.4214 119.825 51.1532 120.12 58.6895Z" stroke="url(#paint39_linear)" stroke-width="0.6" stroke-miterlimit="10"/>
<path d="M121 61C121 68.7134 113.48 74.8767 110.699 81.5842C107.815 88.5376 108.666 98.1862 103.426 103.426C98.1862 108.666 88.5376 107.815 81.5842 110.699C74.8767 113.48 68.7134 121 61 121C53.2866 121 47.1233 113.48 40.4158 110.699C33.4624 107.815 23.8138 108.666 18.5736 103.426C13.3338 98.1862 14.1846 88.5376 11.3011 81.5842C8.51966 74.8767 1 68.7134 1 61C1 53.2866 8.51966 47.1233 11.3011 40.4158C14.1846 33.4624 13.3338 23.8138 18.5736 18.5736C23.8138 13.3338 33.4624 14.1846 40.4158 11.3011C47.1233 8.51966 53.2866 1 61 1C68.7134 1 74.8767 8.51966 81.5842 11.3011C88.5376 14.1846 98.1862 13.3338 103.426 18.5736C108.666 23.8138 107.815 33.4624 110.699 40.4158C113.48 47.1233 121 53.2866 121 61Z" stroke="url(#paint40_linear)" stroke-width="0.6" stroke-miterlimit="10"/>
<defs>
<linearGradient id="paint0_linear" x1="1" y1="61" x2="118" y2="61" gradientUnits="userSpaceOnUse">
<stop stop-color="#E926C3"/>
<stop offset="1" stop-color="#FF4D86"/>
</linearGradient>
<linearGradient id="paint1_linear" x1="1" y1="61" x2="118" y2="61" gradientUnits="userSpaceOnUse">
<stop stop-color="#E926C3"/>
<stop offset="1" stop-color="#FF4D86"/>
</linearGradient>
<linearGradient id="paint2_linear" x1="1" y1="61" x2="118" y2="61" gradientUnits="userSpaceOnUse">
<stop stop-color="#E926C3"/>
<stop offset="1" stop-color="#FF4D86"/>
</linearGradient>
<linearGradient id="paint3_linear" x1="1" y1="61" x2="118" y2="61" gradientUnits="userSpaceOnUse">
<stop stop-color="#E926C3"/>
<stop offset="1" stop-color="#FF4D86"/>
</linearGradient>
<linearGradient id="paint4_linear" x1="1" y1="61" x2="118" y2="61" gradientUnits="userSpaceOnUse">
<stop stop-color="#E926C3"/>
<stop offset="1" stop-color="#FF4D86"/>
</linearGradient>
<linearGradient id="paint5_linear" x1="1" y1="61" x2="118" y2="61" gradientUnits="userSpaceOnUse">
<stop stop-color="#E926C3"/>
<stop offset="1" stop-color="#FF4D86"/>
</linearGradient>
<linearGradient id="paint6_linear" x1="1" y1="61" x2="118" y2="61" gradientUnits="userSpaceOnUse">
<stop stop-color="#E926C3"/>
<stop offset="1" stop-color="#FF4D86"/>
</linearGradient>
<linearGradient id="paint7_linear" x1="1" y1="61" x2="118" y2="61" gradientUnits="userSpaceOnUse">
<stop stop-color="#E926C3"/>
<stop offset="1" stop-color="#FF4D86"/>
</linearGradient>
<linearGradient id="paint8_linear" x1="1" y1="61" x2="118" y2="61" gradientUnits="userSpaceOnUse">
<stop stop-color="#E926C3"/>
<stop offset="1" stop-color="#FF4D86"/>
</linearGradient>
<linearGradient id="paint9_linear" x1="1" y1="61" x2="118" y2="61" gradientUnits="userSpaceOnUse">
<stop stop-color="#E926C3"/>
<stop offset="1" stop-color="#FF4D86"/>
</linearGradient>
<linearGradient id="paint10_linear" x1="1" y1="61" x2="118" y2="61" gradientUnits="userSpaceOnUse">
<stop stop-color="#E926C3"/>
<stop offset="1" stop-color="#FF4D86"/>
</linearGradient>
<linearGradient id="paint11_linear" x1="1" y1="61" x2="118" y2="61" gradientUnits="userSpaceOnUse">
<stop stop-color="#E926C3"/>
<stop offset="1" stop-color="#FF4D86"/>
</linearGradient>
<linearGradient id="paint12_linear" x1="1" y1="61" x2="118" y2="61" gradientUnits="userSpaceOnUse">
<stop stop-color="#E926C3"/>
<stop offset="1" stop-color="#FF4D86"/>
</linearGradient>
<linearGradient id="paint13_linear" x1="1" y1="61" x2="118" y2="61" gradientUnits="userSpaceOnUse">
<stop stop-color="#E926C3"/>
<stop offset="1" stop-color="#FF4D86"/>
</linearGradient>
<linearGradient id="paint14_linear" x1="1" y1="61" x2="118" y2="61" gradientUnits="userSpaceOnUse">
<stop stop-color="#E926C3"/>
<stop offset="1" stop-color="#FF4D86"/>
</linearGradient>
<linearGradient id="paint15_linear" x1="1" y1="61" x2="118" y2="61" gradientUnits="userSpaceOnUse">
<stop stop-color="#E926C3"/>
<stop offset="1" stop-color="#FF4D86"/>
</linearGradient>
<linearGradient id="paint16_linear" x1="1" y1="61" x2="118" y2="61" gradientUnits="userSpaceOnUse">
<stop stop-color="#E926C3"/>
<stop offset="1" stop-color="#FF4D86"/>
</linearGradient>
<linearGradient id="paint17_linear" x1="1" y1="61" x2="118" y2="61" gradientUnits="userSpaceOnUse">
<stop stop-color="#E926C3"/>
<stop offset="1" stop-color="#FF4D86"/>
</linearGradient>
<linearGradient id="paint18_linear" x1="1" y1="61" x2="118" y2="61" gradientUnits="userSpaceOnUse">
<stop stop-color="#E926C3"/>
<stop offset="1" stop-color="#FF4D86"/>
</linearGradient>
<linearGradient id="paint19_linear" x1="1" y1="61" x2="118" y2="61" gradientUnits="userSpaceOnUse">
<stop stop-color="#E926C3"/>
<stop offset="1" stop-color="#FF4D86"/>
</linearGradient>
<linearGradient id="paint20_linear" x1="1" y1="61" x2="118" y2="61" gradientUnits="userSpaceOnUse">
<stop stop-color="#E926C3"/>
<stop offset="1" stop-color="#FF4D86"/>
</linearGradient>
<linearGradient id="paint21_linear" x1="1" y1="61" x2="118" y2="61" gradientUnits="userSpaceOnUse">
<stop stop-color="#E926C3"/>
<stop offset="1" stop-color="#FF4D86"/>
</linearGradient>
<linearGradient id="paint22_linear" x1="1" y1="61" x2="118" y2="61" gradientUnits="userSpaceOnUse">
<stop stop-color="#E926C3"/>
<stop offset="1" stop-color="#FF4D86"/>
</linearGradient>
<linearGradient id="paint23_linear" x1="1" y1="61" x2="118" y2="61" gradientUnits="userSpaceOnUse">
<stop stop-color="#E926C3"/>
<stop offset="1" stop-color="#FF4D86"/>
</linearGradient>
<linearGradient id="paint24_linear" x1="1" y1="61" x2="118" y2="61" gradientUnits="userSpaceOnUse">
<stop stop-color="#E926C3"/>
<stop offset="1" stop-color="#FF4D86"/>
</linearGradient>
<linearGradient id="paint25_linear" x1="1" y1="61" x2="118" y2="61" gradientUnits="userSpaceOnUse">
<stop stop-color="#E926C3"/>
<stop offset="1" stop-color="#FF4D86"/>
</linearGradient>
<linearGradient id="paint26_linear" x1="1" y1="61" x2="118" y2="61" gradientUnits="userSpaceOnUse">
<stop stop-color="#E926C3"/>
<stop offset="1" stop-color="#FF4D86"/>
</linearGradient>
<linearGradient id="paint27_linear" x1="1" y1="61" x2="118" y2="61" gradientUnits="userSpaceOnUse">
<stop stop-color="#E926C3"/>
<stop offset="1" stop-color="#FF4D86"/>
</linearGradient>
<linearGradient id="paint28_linear" x1="1" y1="61" x2="118" y2="61" gradientUnits="userSpaceOnUse">
<stop stop-color="#E926C3"/>
<stop offset="1" stop-color="#FF4D86"/>
</linearGradient>
<linearGradient id="paint29_linear" x1="1" y1="61" x2="118" y2="61" gradientUnits="userSpaceOnUse">
<stop stop-color="#E926C3"/>
<stop offset="1" stop-color="#FF4D86"/>
</linearGradient>
<linearGradient id="paint30_linear" x1="1" y1="61" x2="118" y2="61" gradientUnits="userSpaceOnUse">
<stop stop-color="#E926C3"/>
<stop offset="1" stop-color="#FF4D86"/>
</linearGradient>
<linearGradient id="paint31_linear" x1="1" y1="61" x2="118" y2="61" gradientUnits="userSpaceOnUse">
<stop stop-color="#E926C3"/>
<stop offset="1" stop-color="#FF4D86"/>
</linearGradient>
<linearGradient id="paint32_linear" x1="1" y1="61" x2="118" y2="61" gradientUnits="userSpaceOnUse">
<stop stop-color="#E926C3"/>
<stop offset="1" stop-color="#FF4D86"/>
</linearGradient>
<linearGradient id="paint33_linear" x1="1" y1="61" x2="118" y2="61" gradientUnits="userSpaceOnUse">
<stop stop-color="#E926C3"/>
<stop offset="1" stop-color="#FF4D86"/>
</linearGradient>
<linearGradient id="paint34_linear" x1="1" y1="61" x2="118" y2="61" gradientUnits="userSpaceOnUse">
<stop stop-color="#E926C3"/>
<stop offset="1" stop-color="#FF4D86"/>
</linearGradient>
<linearGradient id="paint35_linear" x1="1" y1="61" x2="118" y2="61" gradientUnits="userSpaceOnUse">
<stop stop-color="#E926C3"/>
<stop offset="1" stop-color="#FF4D86"/>
</linearGradient>
<linearGradient id="paint36_linear" x1="1" y1="61" x2="118" y2="61" gradientUnits="userSpaceOnUse">
<stop stop-color="#E926C3"/>
<stop offset="1" stop-color="#FF4D86"/>
</linearGradient>
<linearGradient id="paint37_linear" x1="1" y1="61" x2="118" y2="61" gradientUnits="userSpaceOnUse">
<stop stop-color="#E926C3"/>
<stop offset="1" stop-color="#FF4D86"/>
</linearGradient>
<linearGradient id="paint38_linear" x1="1" y1="61" x2="118" y2="61" gradientUnits="userSpaceOnUse">
<stop stop-color="#E926C3"/>
<stop offset="1" stop-color="#FF4D86"/>
</linearGradient>
<linearGradient id="paint39_linear" x1="1" y1="61" x2="118" y2="61" gradientUnits="userSpaceOnUse">
<stop stop-color="#E926C3"/>
<stop offset="1" stop-color="#FF4D86"/>
</linearGradient>
<linearGradient id="paint40_linear" x1="1" y1="61" x2="118" y2="61" gradientUnits="userSpaceOnUse">
<stop stop-color="#E926C3"/>
<stop offset="1" stop-color="#FF4D86"/>
</linearGradient>
</defs>
</svg>
